<?xml version='1.0' encoding='utf-8'?>
<mlt title="Anonymous Submission" LC_NUMERIC="de_DE.UTF-8" producer="main_bin" version="6.20.0" root="/home/moritz/workspace/bgdm/persistence_tutorial">
 <profile frame_rate_num="60" sample_aspect_num="1" display_aspect_den="9" colorspace="709" progressive="1" description="2.5K QHD 1440p 60 fps" display_aspect_num="16" frame_rate_den="1" width="2560" height="1440" sample_aspect_den="1"/>
 <producer title="Anonymous Submission" id="producer0" in="00:00:00,000" out="00:00:15,183">
  <property name="length">912</property>
  <property name="eof">pause</property>
  <property name="resource">media/videos/anim/1440p60/SequencePlotTraj.mp4</property>
  <property name="meta.media.nb_streams">1</property>
  <property name="meta.media.0.stream.type">video</property>
  <property name="meta.media.0.stream.frame_rate">60</property>
  <property name="meta.media.0.stream.sample_aspect_ratio">0</property>
  <property name="meta.media.0.codec.width">2560</property>
  <property name="meta.media.0.codec.height">1440</property>
  <property name="meta.media.0.codec.rotate">0</property>
  <property name="meta.media.0.codec.frame_rate">60</property>
  <property name="meta.media.0.codec.pix_fmt">yuv420p</property>
  <property name="meta.media.0.codec.sample_aspect_ratio">0</property>
  <property name="meta.media.0.codec.colorspace">709</property>
  <property name="meta.media.0.codec.name">h264</property>
  <property name="meta.media.0.codec.long_name">H.264 / AVC / MPEG-4 AVC / MPEG-4 part 10</property>
  <property name="meta.media.0.codec.bit_rate">556175</property>
  <property name="meta.attr.0.stream.handler_name.markup">VideoHandler</property>
  <property name="meta.attr.major_brand.markup">isom</property>
  <property name="meta.attr.minor_version.markup">512</property>
  <property name="meta.attr.compatible_brands.markup">isomiso2avc1mp41</property>
  <property name="meta.attr.encoder.markup">Lavf58.29.100</property>
  <property name="seekable">1</property>
  <property name="meta.media.sample_aspect_num">1</property>
  <property name="meta.media.sample_aspect_den">1</property>
  <property name="aspect_ratio">1</property>
  <property name="audio_index">-1</property>
  <property name="video_index">0</property>
  <property name="mute_on_pause">0</property>
  <property name="mlt_service">avformat-novalidate</property>
  <property name="kdenlive:clipname"/>
  <property name="kdenlive:folderid">9</property>
  <property name="meta.media.frame_rate_num">60</property>
  <property name="meta.media.frame_rate_den">1</property>
  <property name="meta.media.colorspace">709</property>
  <property name="meta.media.color_trc">2</property>
  <property name="meta.media.width">2560</property>
  <property name="meta.media.height">1440</property>
  <property name="meta.media.color_range">mpeg</property>
  <property name="kdenlive:id">8</property>
  <property name="kdenlive:file_size">1068033</property>
  <property name="kdenlive:file_hash">dcc470176942dcab04184c0aacf7ec17</property>
  <property name="meta.media.top_field_first">0</property>
  <property name="meta.media.progressive">1</property>
  <property name="global_feed">1</property>
 </producer>
 <producer title="Anonymous Submission" id="producer1" in="00:00:00,000" out="00:00:19,283">
  <property name="length">1158</property>
  <property name="eof">pause</property>
  <property name="resource">media/videos/anim/1440p60/SequencePlotMinMax.mp4</property>
  <property name="meta.media.nb_streams">1</property>
  <property name="meta.media.0.stream.type">video</property>
  <property name="meta.media.0.stream.frame_rate">60</property>
  <property name="meta.media.0.stream.sample_aspect_ratio">0</property>
  <property name="meta.media.0.codec.width">2560</property>
  <property name="meta.media.0.codec.height">1440</property>
  <property name="meta.media.0.codec.rotate">0</property>
  <property name="meta.media.0.codec.frame_rate">60</property>
  <property name="meta.media.0.codec.pix_fmt">yuv420p</property>
  <property name="meta.media.0.codec.sample_aspect_ratio">0</property>
  <property name="meta.media.0.codec.colorspace">709</property>
  <property name="meta.media.0.codec.name">h264</property>
  <property name="meta.media.0.codec.long_name">H.264 / AVC / MPEG-4 AVC / MPEG-4 part 10</property>
  <property name="meta.media.0.codec.bit_rate">1159690</property>
  <property name="meta.attr.0.stream.handler_name.markup">VideoHandler</property>
  <property name="meta.attr.major_brand.markup">isom</property>
  <property name="meta.attr.minor_version.markup">512</property>
  <property name="meta.attr.compatible_brands.markup">isomiso2avc1mp41</property>
  <property name="meta.attr.encoder.markup">Lavf58.29.100</property>
  <property name="seekable">1</property>
  <property name="meta.media.sample_aspect_num">1</property>
  <property name="meta.media.sample_aspect_den">1</property>
  <property name="aspect_ratio">1</property>
  <property name="audio_index">-1</property>
  <property name="video_index">0</property>
  <property name="mute_on_pause">0</property>
  <property name="mlt_service">avformat-novalidate</property>
  <property name="kdenlive:clipname"/>
  <property name="kdenlive:folderid">9</property>
  <property name="meta.media.frame_rate_num">60</property>
  <property name="meta.media.frame_rate_den">1</property>
  <property name="meta.media.colorspace">709</property>
  <property name="meta.media.color_trc">2</property>
  <property name="meta.media.width">2560</property>
  <property name="meta.media.height">1440</property>
  <property name="meta.media.color_range">mpeg</property>
  <property name="kdenlive:id">6</property>
  <property name="kdenlive:file_size">2811856</property>
  <property name="kdenlive:file_hash">7f0d8da170e38f6bcca6fbca4825ab75</property>
  <property name="meta.media.top_field_first">0</property>
  <property name="meta.media.progressive">1</property>
  <property name="global_feed">1</property>
 </producer>
 <producer title="Anonymous Submission" id="producer2" in="00:00:00,000" out="00:00:15,183">
  <property name="length">912</property>
  <property name="eof">pause</property>
  <property name="resource">media/videos/anim/1440p60/SequencePlotDeriv.mp4</property>
  <property name="meta.media.nb_streams">1</property>
  <property name="meta.media.0.stream.type">video</property>
  <property name="meta.media.0.stream.frame_rate">60</property>
  <property name="meta.media.0.stream.sample_aspect_ratio">0</property>
  <property name="meta.media.0.codec.width">2560</property>
  <property name="meta.media.0.codec.height">1440</property>
  <property name="meta.media.0.codec.rotate">0</property>
  <property name="meta.media.0.codec.frame_rate">60</property>
  <property name="meta.media.0.codec.pix_fmt">yuv420p</property>
  <property name="meta.media.0.codec.sample_aspect_ratio">0</property>
  <property name="meta.media.0.codec.colorspace">709</property>
  <property name="meta.media.0.codec.name">h264</property>
  <property name="meta.media.0.codec.long_name">H.264 / AVC / MPEG-4 AVC / MPEG-4 part 10</property>
  <property name="meta.media.0.codec.bit_rate">806951</property>
  <property name="meta.attr.0.stream.handler_name.markup">VideoHandler</property>
  <property name="meta.attr.major_brand.markup">isom</property>
  <property name="meta.attr.minor_version.markup">512</property>
  <property name="meta.attr.compatible_brands.markup">isomiso2avc1mp41</property>
  <property name="meta.attr.encoder.markup">Lavf58.29.100</property>
  <property name="seekable">1</property>
  <property name="meta.media.sample_aspect_num">1</property>
  <property name="meta.media.sample_aspect_den">1</property>
  <property name="aspect_ratio">1</property>
  <property name="audio_index">-1</property>
  <property name="video_index">0</property>
  <property name="mute_on_pause">0</property>
  <property name="mlt_service">avformat-novalidate</property>
  <property name="kdenlive:clipname"/>
  <property name="kdenlive:folderid">9</property>
  <property name="meta.media.frame_rate_num">60</property>
  <property name="meta.media.frame_rate_den">1</property>
  <property name="meta.media.colorspace">709</property>
  <property name="meta.media.color_trc">2</property>
  <property name="meta.media.width">2560</property>
  <property name="meta.media.height">1440</property>
  <property name="meta.media.color_range">mpeg</property>
  <property name="kdenlive:id">4</property>
  <property name="kdenlive:file_size">1544506</property>
  <property name="kdenlive:file_hash">cc28564270784cee3a9357efd0d05fed</property>
  <property name="meta.media.top_field_first">0</property>
  <property name="meta.media.progressive">1</property>
  <property name="global_feed">1</property>
 </producer>
 <producer id="producer3" in="00:00:00,000" out="00:00:03,983">
  <property name="length">240</property>
  <property name="eof">pause</property>
  <property name="resource">media/videos/anim/1440p60/FormulaScene.mp4</property>
  <property name="meta.media.nb_streams">1</property>
  <property name="meta.media.0.stream.type">video</property>
  <property name="meta.media.0.stream.frame_rate">60</property>
  <property name="meta.media.0.stream.sample_aspect_ratio">0</property>
  <property name="meta.media.0.codec.width">2560</property>
  <property name="meta.media.0.codec.height">1440</property>
  <property name="meta.media.0.codec.rotate">0</property>
  <property name="meta.media.0.codec.frame_rate">60</property>
  <property name="meta.media.0.codec.pix_fmt">yuv420p</property>
  <property name="meta.media.0.codec.sample_aspect_ratio">0</property>
  <property name="meta.media.0.codec.colorspace">709</property>
  <property name="meta.media.0.codec.name">h264</property>
  <property name="meta.media.0.codec.long_name">H.264 / AVC / MPEG-4 AVC / MPEG-4 part 10</property>
  <property name="meta.media.0.codec.bit_rate">119476</property>
  <property name="meta.attr.0.stream.handler_name.markup">VideoHandler</property>
  <property name="meta.attr.major_brand.markup">isom</property>
  <property name="meta.attr.minor_version.markup">512</property>
  <property name="meta.attr.compatible_brands.markup">isomiso2avc1mp41</property>
  <property name="meta.attr.encoder.markup">Lavf58.29.100</property>
  <property name="seekable">1</property>
  <property name="meta.media.sample_aspect_num">1</property>
  <property name="meta.media.sample_aspect_den">1</property>
  <property name="aspect_ratio">1</property>
  <property name="audio_index">-1</property>
  <property name="video_index">0</property>
  <property name="mute_on_pause">0</property>
  <property name="mlt_service">avformat-novalidate</property>
  <property name="kdenlive:clipname"/>
  <property name="meta.media.frame_rate_num">60</property>
  <property name="meta.media.frame_rate_den">1</property>
  <property name="meta.media.colorspace">709</property>
  <property name="meta.media.color_trc">2</property>
  <property name="meta.media.width">2560</property>
  <property name="meta.media.height">1440</property>
  <property name="meta.media.color_range">mpeg</property>
  <property name="meta.media.top_field_first">0</property>
  <property name="meta.media.progressive">1</property>
  <property name="kdenlive:folderid">9</property>
  <property name="kdenlive:id">2</property>
  <property name="kdenlive:file_size">63441</property>
  <property name="kdenlive:file_hash">ff05852c58baea3993dd1d16a6614655</property>
 </producer>
 <producer title="Anonymous Submission" id="producer4" in="00:00:00,000" out="00:00:44,700">
  <property name="length">2683</property>
  <property name="eof">pause</property>
  <property name="resource">audio/intro_01.mp3</property>
  <property name="meta.media.nb_streams">1</property>
  <property name="meta.media.0.stream.type">audio</property>
  <property name="meta.media.0.codec.sample_fmt">fltp</property>
  <property name="meta.media.0.codec.sample_rate">44100</property>
  <property name="meta.media.0.codec.channels">1</property>
  <property name="meta.media.0.codec.name">mp3float</property>
  <property name="meta.media.0.codec.long_name">MP3 (MPEG audio layer 3)</property>
  <property name="meta.media.0.codec.bit_rate">320000</property>
  <property name="meta.attr.0.stream.encoder.markup">LAME3.100</property>
  <property name="seekable">1</property>
  <property name="audio_index">0</property>
  <property name="video_index">-1</property>
  <property name="mute_on_pause">1</property>
  <property name="mlt_service">avformat</property>
  <property name="kdenlive:clipname"/>
  <property name="kdenlive:folderid">10</property>
  <property name="kdenlive:id">11</property>
  <property name="kdenlive:file_size">1789909</property>
  <property name="kdenlive:file_hash">3e043a99330f57be98ec8a4c502d3a26</property>
  <property name="global_feed">1</property>
 </producer>
 <producer title="Anonymous Submission" id="producer5" in="00:00:00,000" out="00:01:08,983">
  <property name="length">4140</property>
  <property name="eof">pause</property>
  <property name="resource">media/videos/anim/1440p60/Titles.mp4</property>
  <property name="meta.media.nb_streams">1</property>
  <property name="meta.media.0.stream.type">video</property>
  <property name="meta.media.0.stream.frame_rate">60</property>
  <property name="meta.media.0.stream.sample_aspect_ratio">0</property>
  <property name="meta.media.0.codec.width">2560</property>
  <property name="meta.media.0.codec.height">1440</property>
  <property name="meta.media.0.codec.rotate">0</property>
  <property name="meta.media.0.codec.frame_rate">60</property>
  <property name="meta.media.0.codec.pix_fmt">yuv420p</property>
  <property name="meta.media.0.codec.sample_aspect_ratio">0</property>
  <property name="meta.media.0.codec.colorspace">709</property>
  <property name="meta.media.0.codec.name">h264</property>
  <property name="meta.media.0.codec.long_name">H.264 / AVC / MPEG-4 AVC / MPEG-4 part 10</property>
  <property name="meta.media.0.codec.bit_rate">118140</property>
  <property name="meta.attr.0.stream.handler_name.markup">VideoHandler</property>
  <property name="meta.attr.major_brand.markup">isom</property>
  <property name="meta.attr.minor_version.markup">512</property>
  <property name="meta.attr.compatible_brands.markup">isomiso2avc1mp41</property>
  <property name="meta.attr.encoder.markup">Lavf58.29.100</property>
  <property name="seekable">1</property>
  <property name="meta.media.sample_aspect_num">1</property>
  <property name="meta.media.sample_aspect_den">1</property>
  <property name="aspect_ratio">1</property>
  <property name="audio_index">-1</property>
  <property name="video_index">0</property>
  <property name="mute_on_pause">0</property>
  <property name="mlt_service">avformat-novalidate</property>
  <property name="kdenlive:clipname"/>
  <property name="kdenlive:folderid">9</property>
  <property name="meta.media.frame_rate_num">60</property>
  <property name="meta.media.frame_rate_den">1</property>
  <property name="meta.media.colorspace">709</property>
  <property name="meta.media.color_trc">2</property>
  <property name="meta.media.width">2560</property>
  <property name="meta.media.height">1440</property>
  <property name="meta.media.color_range">mpeg</property>
  <property name="kdenlive:id">12</property>
  <property name="kdenlive:file_size">1069306</property>
  <property name="kdenlive:file_hash">4db30d265e4c740cd440b9bdc4d4610e</property>
  <property name="meta.media.top_field_first">0</property>
  <property name="meta.media.progressive">1</property>
  <property name="global_feed">1</property>
 </producer>
 <producer title="Anonymous Submission" id="producer6" in="00:00:00,000" out="00:00:10,983">
  <property name="length">660</property>
  <property name="eof">pause</property>
  <property name="resource">media/videos/anim/1440p60/TopTitle.mp4</property>
  <property name="meta.media.nb_streams">1</property>
  <property name="meta.media.0.stream.type">video</property>
  <property name="meta.media.0.stream.frame_rate">60</property>
  <property name="meta.media.0.stream.sample_aspect_ratio">0</property>
  <property name="meta.media.0.codec.width">2560</property>
  <property name="meta.media.0.codec.height">1440</property>
  <property name="meta.media.0.codec.rotate">0</property>
  <property name="meta.media.0.codec.frame_rate">60</property>
  <property name="meta.media.0.codec.pix_fmt">yuv420p</property>
  <property name="meta.media.0.codec.sample_aspect_ratio">0</property>
  <property name="meta.media.0.codec.colorspace">709</property>
  <property name="meta.media.0.codec.name">h264</property>
  <property name="meta.media.0.codec.long_name">H.264 / AVC / MPEG-4 AVC / MPEG-4 part 10</property>
  <property name="meta.media.0.codec.bit_rate">282970</property>
  <property name="meta.attr.0.stream.handler_name.markup">VideoHandler</property>
  <property name="meta.attr.major_brand.markup">isom</property>
  <property name="meta.attr.minor_version.markup">512</property>
  <property name="meta.attr.compatible_brands.markup">isomiso2avc1mp41</property>
  <property name="meta.attr.encoder.markup">Lavf58.29.100</property>
  <property name="seekable">1</property>
  <property name="meta.media.sample_aspect_num">1</property>
  <property name="meta.media.sample_aspect_den">1</property>
  <property name="aspect_ratio">1</property>
  <property name="audio_index">-1</property>
  <property name="video_index">0</property>
  <property name="mute_on_pause">0</property>
  <property name="mlt_service">avformat-novalidate</property>
  <property name="kdenlive:clipname"/>
  <property name="kdenlive:folderid">9</property>
  <property name="meta.media.frame_rate_num">60</property>
  <property name="meta.media.frame_rate_den">1</property>
  <property name="meta.media.colorspace">709</property>
  <property name="meta.media.color_trc">2</property>
  <property name="meta.media.width">2560</property>
  <property name="meta.media.height">1440</property>
  <property name="meta.media.color_range">mpeg</property>
  <property name="kdenlive:id">13</property>
  <property name="kdenlive:file_size">397799</property>
  <property name="kdenlive:file_hash">93ec5397d8247f299bbc6ae317aaf75c</property>
  <property name="meta.media.top_field_first">0</property>
  <property name="meta.media.progressive">1</property>
  <property name="global_feed">1</property>
 </producer>
 <producer id="producer7" in="00:00:00,000" out="00:05:31,417">
  <property name="length">19886</property>
  <property name="eof">pause</property>
  <property name="resource">0xffffffff</property>
  <property name="aspect_ratio">1</property>
  <property name="mlt_service">color</property>
  <property name="kdenlive:clipname">Color Clip</property>
  <property name="kdenlive:duration">00:00:05,000</property>
  <property name="kdenlive:folderid">9</property>
  <property name="kdenlive:id">15</property>
  <property name="kdenlive:file_hash">039b56a692cd66eefeea44a17539e5a2</property>
 </producer>
 <producer id="producer8" in="00:00:00,000" out="00:00:04,983">
  <property name="length">00:00:05,000</property>
  <property name="eof">pause</property>
  <property name="resource">gfx/analysis.pdf.svg</property>
  <property name="ttl">25</property>
  <property name="aspect_ratio">1</property>
  <property name="progressive">1</property>
  <property name="seekable">1</property>
  <property name="meta.media.width">630</property>
  <property name="meta.media.height">630</property>
  <property name="mlt_service">qimage</property>
  <property name="kdenlive:clipname"/>
  <property name="kdenlive:duration">00:00:05,000</property>
  <property name="kdenlive:folderid">16</property>
  <property name="kdenlive:id">22</property>
  <property name="kdenlive:file_size">47682</property>
  <property name="kdenlive:file_hash">ff4ea4c5a430c6e1106a903013b1a139</property>
 </producer>
 <producer id="producer9" in="00:00:00,000" out="00:00:04,983">
  <property name="length">00:00:05,000</property>
  <property name="eof">pause</property>
  <property name="resource">gfx/examples_beta_pruning.pdf.svg</property>
  <property name="ttl">25</property>
  <property name="aspect_ratio">1</property>
  <property name="progressive">1</property>
  <property name="seekable">1</property>
  <property name="meta.media.width">461</property>
  <property name="meta.media.height">602</property>
  <property name="mlt_service">qimage</property>
  <property name="kdenlive:clipname"/>
  <property name="kdenlive:duration">00:00:05,000</property>
  <property name="kdenlive:folderid">16</property>
  <property name="kdenlive:id">23</property>
  <property name="kdenlive:file_size">112734</property>
  <property name="kdenlive:file_hash">9d0bbf86e84bd3704709a7c92e3b3f49</property>
 </producer>
 <producer id="producer10" in="00:00:00,000" out="00:00:04,983">
  <property name="length">00:00:05,000</property>
  <property name="eof">pause</property>
  <property name="resource">gfx/examples_beta_pruning.svg</property>
  <property name="ttl">25</property>
  <property name="aspect_ratio">1</property>
  <property name="progressive">1</property>
  <property name="seekable">1</property>
  <property name="meta.media.width">461</property>
  <property name="meta.media.height">602</property>
  <property name="mlt_service">qimage</property>
  <property name="kdenlive:clipname"/>
  <property name="kdenlive:duration">00:00:05,000</property>
  <property name="kdenlive:folderid">16</property>
  <property name="kdenlive:id">24</property>
  <property name="kdenlive:file_size">90502</property>
  <property name="kdenlive:file_hash">16b574e01690e92a0f1815342f0c342f</property>
 </producer>
 <producer id="producer11" in="00:00:00,000" out="00:00:04,983">
  <property name="length">00:00:05,000</property>
  <property name="eof">pause</property>
  <property name="resource">gfx/examples_mrs.pdf.svg</property>
  <property name="ttl">25</property>
  <property name="aspect_ratio">1</property>
  <property name="progressive">1</property>
  <property name="seekable">1</property>
  <property name="meta.media.width">461</property>
  <property name="meta.media.height">602</property>
  <property name="mlt_service">qimage</property>
  <property name="kdenlive:clipname"/>
  <property name="kdenlive:duration">00:00:05,000</property>
  <property name="kdenlive:folderid">16</property>
  <property name="kdenlive:id">25</property>
  <property name="kdenlive:file_size">98503</property>
  <property name="kdenlive:file_hash">20fba25a4a1538c631f55e91a19675f0</property>
 </producer>
 <producer id="producer12" in="00:00:00,000" out="00:00:04,983">
  <property name="length">00:00:05,000</property>
  <property name="eof">pause</property>
  <property name="resource">gfx/examples_mrs.svg</property>
  <property name="ttl">25</property>
  <property name="aspect_ratio">1</property>
  <property name="progressive">1</property>
  <property name="seekable">1</property>
  <property name="meta.media.width">461</property>
  <property name="meta.media.height">602</property>
  <property name="mlt_service">qimage</property>
  <property name="kdenlive:clipname"/>
  <property name="kdenlive:duration">00:00:05,000</property>
  <property name="kdenlive:folderid">16</property>
  <property name="kdenlive:id">26</property>
  <property name="kdenlive:file_size">84859</property>
  <property name="kdenlive:file_hash">257f01d4ff00c3a6472b7ffef77fd46b</property>
 </producer>
 <producer id="producer13" in="00:00:00,000" out="00:00:04,983">
  <property name="length">00:00:05,000</property>
  <property name="eof">pause</property>
  <property name="resource">gfx/examples_sds.pdf.svg</property>
  <property name="ttl">25</property>
  <property name="aspect_ratio">1</property>
  <property name="progressive">1</property>
  <property name="seekable">1</property>
  <property name="meta.media.width">461</property>
  <property name="meta.media.height">602</property>
  <property name="mlt_service">qimage</property>
  <property name="kdenlive:clipname"/>
  <property name="kdenlive:duration">00:00:05,000</property>
  <property name="kdenlive:folderid">16</property>
  <property name="kdenlive:id">27</property>
  <property name="kdenlive:file_size">120768</property>
  <property name="kdenlive:file_hash">e401ac35f63e0551b8805cfc8385f7a6</property>
 </producer>
 <producer id="producer14" in="00:00:00,000" out="00:00:04,983">
  <property name="length">00:00:05,000</property>
  <property name="eof">pause</property>
  <property name="resource">gfx/examples_sds.svg</property>
  <property name="ttl">25</property>
  <property name="aspect_ratio">1</property>
  <property name="progressive">1</property>
  <property name="seekable">1</property>
  <property name="meta.media.width">461</property>
  <property name="meta.media.height">602</property>
  <property name="mlt_service">qimage</property>
  <property name="kdenlive:clipname"/>
  <property name="kdenlive:duration">00:00:05,000</property>
  <property name="kdenlive:folderid">16</property>
  <property name="kdenlive:id">28</property>
  <property name="kdenlive:file_size">85807</property>
  <property name="kdenlive:file_hash">4438be727ba1347616dc450c3a4c4e49</property>
 </producer>
 <producer id="producer15" in="00:00:00,000" out="00:00:04,983">
  <property name="length">00:00:05,000</property>
  <property name="eof">pause</property>
  <property name="resource">gfx/persistence_sweepline.svg</property>
  <property name="ttl">25</property>
  <property name="aspect_ratio">1</property>
  <property name="progressive">1</property>
  <property name="seekable">1</property>
  <property name="meta.media.width">1063</property>
  <property name="meta.media.height">230</property>
  <property name="mlt_service">qimage</property>
  <property name="kdenlive:clipname"/>
  <property name="kdenlive:duration">00:00:05,000</property>
  <property name="kdenlive:folderid">16</property>
  <property name="kdenlive:id">29</property>
  <property name="kdenlive:file_size">83811</property>
  <property name="kdenlive:file_hash">5570e03a2590ea6f640aff23c6874264</property>
 </producer>
 <producer id="producer16" in="00:00:00,000" out="00:00:04,983">
  <property name="length">00:00:05,000</property>
  <property name="eof">pause</property>
  <property name="resource">gfx/persistence_sweepline1.pdf.svg</property>
  <property name="ttl">25</property>
  <property name="aspect_ratio">1</property>
  <property name="progressive">1</property>
  <property name="seekable">1</property>
  <property name="meta.media.width">1222</property>
  <property name="meta.media.height">283</property>
  <property name="mlt_service">qimage</property>
  <property name="kdenlive:clipname"/>
  <property name="kdenlive:duration">00:00:05,000</property>
  <property name="kdenlive:folderid">16</property>
  <property name="kdenlive:id">30</property>
  <property name="kdenlive:file_size">72591</property>
  <property name="kdenlive:file_hash">7918e0718d054924dc2033f58e85956c</property>
 </producer>
 <producer id="producer17" in="00:00:00,000" out="00:00:04,983">
  <property name="length">00:00:05,000</property>
  <property name="eof">pause</property>
  <property name="resource">gfx/persistence_sweepline1.svg</property>
  <property name="ttl">25</property>
  <property name="aspect_ratio">1</property>
  <property name="progressive">1</property>
  <property name="seekable">1</property>
  <property name="meta.media.width">1222</property>
  <property name="meta.media.height">283</property>
  <property name="mlt_service">qimage</property>
  <property name="kdenlive:clipname"/>
  <property name="kdenlive:duration">00:00:05,000</property>
  <property name="kdenlive:folderid">16</property>
  <property name="kdenlive:id">31</property>
  <property name="kdenlive:file_size">92366</property>
  <property name="kdenlive:file_hash">fa7801d98afe67d076a81fbfb47e9593</property>
 </producer>
 <producer id="producer18" in="00:00:00,000" out="00:00:04,983">
  <property name="length">00:00:05,000</property>
  <property name="eof">pause</property>
  <property name="resource">gfx/simplification.pdf.svg</property>
  <property name="ttl">25</property>
  <property name="aspect_ratio">1</property>
  <property name="progressive">1</property>
  <property name="seekable">1</property>
  <property name="meta.media.width">921</property>
  <property name="meta.media.height">354</property>
  <property name="mlt_service">qimage</property>
  <property name="kdenlive:clipname"/>
  <property name="kdenlive:duration">00:00:05,000</property>
  <property name="kdenlive:folderid">16</property>
  <property name="kdenlive:id">32</property>
  <property name="kdenlive:file_size">132921</property>
  <property name="kdenlive:file_hash">e46489f1eedaa1473af29602ae57e2c2</property>
 </producer>
 <producer id="producer19" in="00:00:00,000" out="00:00:13,750">
  <property name="length">826</property>
  <property name="eof">pause</property>
  <property name="resource">gfx/simplification.svg</property>
  <property name="ttl">25</property>
  <property name="aspect_ratio">1</property>
  <property name="progressive">1</property>
  <property name="seekable">1</property>
  <property name="meta.media.width">921</property>
  <property name="meta.media.height">354</property>
  <property name="mlt_service">qimage</property>
  <property name="kdenlive:clipname"/>
  <property name="kdenlive:duration">00:00:05,000</property>
  <property name="kdenlive:folderid">16</property>
  <property name="kdenlive:id">33</property>
  <property name="kdenlive:file_size">112356</property>
  <property name="kdenlive:file_hash">ba8f58357a13985ec9eaa6758a1e79f2</property>
 </producer>
 <producer id="producer20" in="00:00:00,000" out="00:00:04,983">
  <property name="length">00:00:05,000</property>
  <property name="eof">pause</property>
  <property name="resource">gfx/slide01.pdf.svg</property>
  <property name="ttl">25</property>
  <property name="aspect_ratio">1</property>
  <property name="progressive">1</property>
  <property name="seekable">1</property>
  <property name="meta.media.width">992</property>
  <property name="meta.media.height">744</property>
  <property name="mlt_service">qimage</property>
  <property name="kdenlive:clipname"/>
  <property name="kdenlive:duration">00:00:05,000</property>
  <property name="kdenlive:folderid">16</property>
  <property name="kdenlive:id">34</property>
  <property name="kdenlive:file_size">31424</property>
  <property name="kdenlive:file_hash">91169e1c2dfbf5a4ecb08dd9fe00c1dc</property>
 </producer>
 <producer id="producer21" in="00:00:00,000" out="00:00:04,983">
  <property name="length">00:00:05,000</property>
  <property name="eof">pause</property>
  <property name="resource">gfx/slide02.pdf.svg</property>
  <property name="ttl">25</property>
  <property name="aspect_ratio">1</property>
  <property name="progressive">1</property>
  <property name="seekable">1</property>
  <property name="meta.media.width">992</property>
  <property name="meta.media.height">744</property>
  <property name="mlt_service">qimage</property>
  <property name="kdenlive:clipname"/>
  <property name="kdenlive:duration">00:00:05,000</property>
  <property name="kdenlive:folderid">16</property>
  <property name="kdenlive:id">35</property>
  <property name="kdenlive:file_size">56647</property>
  <property name="kdenlive:file_hash">733ad3dc1ecc468de90cc10049c0f3af</property>
 </producer>
 <producer id="producer22" in="00:00:00,000" out="00:00:04,983">
  <property name="length">00:00:05,000</property>
  <property name="eof">pause</property>
  <property name="resource">gfx/slide05.pdf.svg</property>
  <property name="ttl">25</property>
  <property name="aspect_ratio">1</property>
  <property name="progressive">1</property>
  <property name="seekable">1</property>
  <property name="meta.media.width">992</property>
  <property name="meta.media.height">744</property>
  <property name="mlt_service">qimage</property>
  <property name="kdenlive:clipname"/>
  <property name="kdenlive:duration">00:00:05,000</property>
  <property name="kdenlive:folderid">16</property>
  <property name="kdenlive:id">38</property>
  <property name="kdenlive:file_size">90194</property>
  <property name="kdenlive:file_hash">8d0d56d4db66cc9fd1f5539fc0e4fffe</property>
 </producer>
 <producer id="producer23" in="00:00:00,000" out="00:00:04,983">
  <property name="length">00:00:05,000</property>
  <property name="eof">pause</property>
  <property name="resource">gfx/slide06.pdf.svg</property>
  <property name="ttl">25</property>
  <property name="aspect_ratio">1</property>
  <property name="progressive">1</property>
  <property name="seekable">1</property>
  <property name="meta.media.width">992</property>
  <property name="meta.media.height">744</property>
  <property name="mlt_service">qimage</property>
  <property name="kdenlive:clipname"/>
  <property name="kdenlive:duration">00:00:05,000</property>
  <property name="kdenlive:folderid">16</property>
  <property name="kdenlive:id">39</property>
  <property name="kdenlive:file_size">188458</property>
  <property name="kdenlive:file_hash">738879b2715c33999b870de182e46dca</property>
 </producer>
 <producer id="producer24" in="00:00:00,000" out="00:00:04,983">
  <property name="length">00:00:05,000</property>
  <property name="eof">pause</property>
  <property name="resource">gfx/slide07.pdf.svg</property>
  <property name="ttl">25</property>
  <property name="aspect_ratio">1</property>
  <property name="progressive">1</property>
  <property name="seekable">1</property>
  <property name="meta.media.width">992</property>
  <property name="meta.media.height">744</property>
  <property name="mlt_service">qimage</property>
  <property name="kdenlive:clipname"/>
  <property name="kdenlive:duration">00:00:05,000</property>
  <property name="kdenlive:folderid">16</property>
  <property name="kdenlive:id">40</property>
  <property name="kdenlive:file_size">128513</property>
  <property name="kdenlive:file_hash">448e8cacb533fec0bd5668e7d8177a6c</property>
 </producer>
 <producer id="producer25" in="00:00:00,000" out="00:00:08,750">
  <property name="length">526</property>
  <property name="eof">pause</property>
  <property name="resource">gfx/slide08.pdf.svg</property>
  <property name="ttl">25</property>
  <property name="aspect_ratio">1</property>
  <property name="progressive">1</property>
  <property name="seekable">1</property>
  <property name="meta.media.width">992</property>
  <property name="meta.media.height">744</property>
  <property name="mlt_service">qimage</property>
  <property name="kdenlive:clipname"/>
  <property name="kdenlive:duration">00:00:05,000</property>
  <property name="kdenlive:folderid">16</property>
  <property name="kdenlive:id">41</property>
  <property name="kdenlive:file_size">288246</property>
  <property name="kdenlive:file_hash">b355c76ba0f3befa67d02ee65bf1724f</property>
 </producer>
 <producer id="producer26" in="00:00:00,000" out="00:00:04,983">
  <property name="length">00:00:05,000</property>
  <property name="eof">pause</property>
  <property name="resource">gfx/slide09.pdf.svg</property>
  <property name="ttl">25</property>
  <property name="aspect_ratio">1</property>
  <property name="progressive">1</property>
  <property name="seekable">1</property>
  <property name="meta.media.width">992</property>
  <property name="meta.media.height">744</property>
  <property name="mlt_service">qimage</property>
  <property name="kdenlive:clipname"/>
  <property name="kdenlive:duration">00:00:05,000</property>
  <property name="kdenlive:folderid">16</property>
  <property name="kdenlive:id">42</property>
  <property name="kdenlive:file_size">178267</property>
  <property name="kdenlive:file_hash">964f71dd02d95a91521f9b5d3fce2fae</property>
 </producer>
 <producer id="producer27" in="00:00:00,000" out="00:00:04,983">
  <property name="length">00:00:05,000</property>
  <property name="eof">pause</property>
  <property name="resource">gfx/slide10.pdf.svg</property>
  <property name="ttl">25</property>
  <property name="aspect_ratio">1</property>
  <property name="progressive">1</property>
  <property name="seekable">1</property>
  <property name="meta.media.width">992</property>
  <property name="meta.media.height">744</property>
  <property name="mlt_service">qimage</property>
  <property name="kdenlive:clipname"/>
  <property name="kdenlive:duration">00:00:05,000</property>
  <property name="kdenlive:folderid">16</property>
  <property name="kdenlive:id">43</property>
  <property name="kdenlive:file_size">189613</property>
  <property name="kdenlive:file_hash">3c443d97edd3495bf94dde8a85309256</property>
 </producer>
 <producer id="producer28" in="00:00:00,000" out="00:00:04,983">
  <property name="length">00:00:05,000</property>
  <property name="eof">pause</property>
  <property name="resource">gfx/slide11.pdf.svg</property>
  <property name="ttl">25</property>
  <property name="aspect_ratio">1</property>
  <property name="progressive">1</property>
  <property name="seekable">1</property>
  <property name="meta.media.width">992</property>
  <property name="meta.media.height">744</property>
  <property name="mlt_service">qimage</property>
  <property name="kdenlive:clipname"/>
  <property name="kdenlive:duration">00:00:05,000</property>
  <property name="kdenlive:folderid">16</property>
  <property name="kdenlive:id">44</property>
  <property name="kdenlive:file_size">204768</property>
  <property name="kdenlive:file_hash">dd6d96ff06490235b045f3ab8436caa8</property>
 </producer>
 <producer id="producer29" in="00:00:00,000" out="00:00:17,450">
  <property name="length">1048</property>
  <property name="eof">pause</property>
  <property name="resource">gfx/slide12.pdf.svg</property>
  <property name="ttl">25</property>
  <property name="aspect_ratio">1</property>
  <property name="progressive">1</property>
  <property name="seekable">1</property>
  <property name="meta.media.width">992</property>
  <property name="meta.media.height">744</property>
  <property name="mlt_service">qimage</property>
  <property name="kdenlive:clipname"/>
  <property name="kdenlive:duration">00:00:05,000</property>
  <property name="kdenlive:folderid">16</property>
  <property name="kdenlive:id">45</property>
  <property name="kdenlive:file_size">340134</property>
  <property name="kdenlive:file_hash">2bad8228dd0163da645aa6e5936ee9c0</property>
 </producer>
 <producer id="producer30" in="00:00:00,000" out="00:00:13,533">
  <property name="length">813</property>
  <property name="eof">pause</property>
  <property name="resource">gfx/slide13.pdf.svg</property>
  <property name="ttl">25</property>
  <property name="aspect_ratio">1</property>
  <property name="progressive">1</property>
  <property name="seekable">1</property>
  <property name="meta.media.width">992</property>
  <property name="meta.media.height">744</property>
  <property name="mlt_service">qimage</property>
  <property name="kdenlive:clipname"/>
  <property name="kdenlive:duration">00:00:05,000</property>
  <property name="kdenlive:folderid">16</property>
  <property name="kdenlive:id">46</property>
  <property name="kdenlive:file_size">235102</property>
  <property name="kdenlive:file_hash">cf4d10292746be2da5167ad917824a17</property>
 </producer>
 <producer id="producer31" in="00:00:00,000" out="00:00:04,983">
  <property name="length">00:00:05,000</property>
  <property name="eof">pause</property>
  <property name="resource">gfx/slide14.pdf.svg</property>
  <property name="ttl">25</property>
  <property name="aspect_ratio">1</property>
  <property name="progressive">1</property>
  <property name="seekable">1</property>
  <property name="meta.media.width">992</property>
  <property name="meta.media.height">744</property>
  <property name="mlt_service">qimage</property>
  <property name="kdenlive:clipname"/>
  <property name="kdenlive:duration">00:00:05,000</property>
  <property name="kdenlive:folderid">16</property>
  <property name="kdenlive:id">47</property>
  <property name="kdenlive:file_size">88484</property>
  <property name="kdenlive:file_hash">257e5a75c4b97beeb2dbd416acf0a08d</property>
 </producer>
 <producer id="producer32" in="00:00:00,000" out="00:00:04,983">
  <property name="length">00:00:05,000</property>
  <property name="eof">pause</property>
  <property name="resource">gfx/slide15.pdf.svg</property>
  <property name="ttl">25</property>
  <property name="aspect_ratio">1</property>
  <property name="progressive">1</property>
  <property name="seekable">1</property>
  <property name="meta.media.width">992</property>
  <property name="meta.media.height">744</property>
  <property name="mlt_service">qimage</property>
  <property name="kdenlive:clipname"/>
  <property name="kdenlive:duration">00:00:05,000</property>
  <property name="kdenlive:folderid">16</property>
  <property name="kdenlive:id">48</property>
  <property name="kdenlive:file_size">118145</property>
  <property name="kdenlive:file_hash">dad1a98c5627cd5037417804df4e9293</property>
 </producer>
 <producer id="producer33" in="00:00:00,000" out="00:00:04,983">
  <property name="length">00:00:05,000</property>
  <property name="eof">pause</property>
  <property name="resource">gfx/slide16.pdf.svg</property>
  <property name="ttl">25</property>
  <property name="aspect_ratio">1</property>
  <property name="progressive">1</property>
  <property name="seekable">1</property>
  <property name="meta.media.width">992</property>
  <property name="meta.media.height">744</property>
  <property name="mlt_service">qimage</property>
  <property name="kdenlive:clipname"/>
  <property name="kdenlive:duration">00:00:05,000</property>
  <property name="kdenlive:folderid">16</property>
  <property name="kdenlive:id">49</property>
  <property name="kdenlive:file_size">240646</property>
  <property name="kdenlive:file_hash">a62c70e2b4524216a66abc6c7aed733c</property>
 </producer>
 <producer id="producer34" in="00:00:00,000" out="00:00:04,983">
  <property name="length">00:00:05,000</property>
  <property name="eof">pause</property>
  <property name="resource">gfx/slide17.pdf.svg</property>
  <property name="ttl">25</property>
  <property name="aspect_ratio">1</property>
  <property name="progressive">1</property>
  <property name="seekable">1</property>
  <property name="meta.media.width">992</property>
  <property name="meta.media.height">744</property>
  <property name="mlt_service">qimage</property>
  <property name="kdenlive:clipname"/>
  <property name="kdenlive:duration">00:00:05,000</property>
  <property name="kdenlive:folderid">16</property>
  <property name="kdenlive:id">50</property>
  <property name="kdenlive:file_size">57575</property>
  <property name="kdenlive:file_hash">b3ce1c7f2cd5d1439b675c6a88c6404e</property>
 </producer>
 <producer id="producer35" in="00:00:00,000" out="00:00:04,983">
  <property name="length">00:00:05,000</property>
  <property name="eof">pause</property>
  <property name="resource">gfx/slide20.pdf.svg</property>
  <property name="ttl">25</property>
  <property name="aspect_ratio">1</property>
  <property name="progressive">1</property>
  <property name="seekable">1</property>
  <property name="meta.media.width">992</property>
  <property name="meta.media.height">744</property>
  <property name="mlt_service">qimage</property>
  <property name="kdenlive:clipname"/>
  <property name="kdenlive:duration">00:00:05,000</property>
  <property name="kdenlive:folderid">16</property>
  <property name="kdenlive:id">53</property>
  <property name="kdenlive:file_size">53322</property>
  <property name="kdenlive:file_hash">4c33c0a5414e038becfac1c26c159ea6</property>
 </producer>
 <producer id="producer36" in="00:00:00,000" out="00:00:04,983">
  <property name="length">00:00:05,000</property>
  <property name="eof">pause</property>
  <property name="resource">gfx/slide21.pdf.svg</property>
  <property name="ttl">25</property>
  <property name="aspect_ratio">1</property>
  <property name="progressive">1</property>
  <property name="seekable">1</property>
  <property name="meta.media.width">992</property>
  <property name="meta.media.height">744</property>
  <property name="mlt_service">qimage</property>
  <property name="kdenlive:clipname"/>
  <property name="kdenlive:duration">00:00:05,000</property>
  <property name="kdenlive:folderid">16</property>
  <property name="kdenlive:id">54</property>
  <property name="kdenlive:file_size">382228</property>
  <property name="kdenlive:file_hash">999a88c63709cb8c5e2ad79716b22575</property>
 </producer>
 <producer id="producer37" in="00:00:00,000" out="00:00:04,983">
  <property name="length">00:00:05,000</property>
  <property name="eof">pause</property>
  <property name="resource">gfx/slide22.pdf.svg</property>
  <property name="ttl">25</property>
  <property name="aspect_ratio">1</property>
  <property name="progressive">1</property>
  <property name="seekable">1</property>
  <property name="meta.media.width">992</property>
  <property name="meta.media.height">744</property>
  <property name="mlt_service">qimage</property>
  <property name="kdenlive:clipname"/>
  <property name="kdenlive:duration">00:00:05,000</property>
  <property name="kdenlive:folderid">16</property>
  <property name="kdenlive:id">55</property>
  <property name="kdenlive:file_size">136292</property>
  <property name="kdenlive:file_hash">35afdad48c18184b8d4242e6fbcd1f03</property>
 </producer>
 <producer id="producer38" in="00:00:00,000" out="00:00:04,983">
  <property name="length">00:00:05,000</property>
  <property name="eof">pause</property>
  <property name="resource">gfx/slide24.pdf.svg</property>
  <property name="ttl">25</property>
  <property name="aspect_ratio">1</property>
  <property name="progressive">1</property>
  <property name="seekable">1</property>
  <property name="meta.media.width">992</property>
  <property name="meta.media.height">744</property>
  <property name="mlt_service">qimage</property>
  <property name="kdenlive:clipname"/>
  <property name="kdenlive:duration">00:00:05,000</property>
  <property name="kdenlive:folderid">16</property>
  <property name="kdenlive:id">57</property>
  <property name="kdenlive:file_size">155318</property>
  <property name="kdenlive:file_hash">00f97da1497a72f65cf95b73cb2f47f4</property>
 </producer>
 <producer id="producer39" in="00:00:00,000" out="00:00:04,983">
  <property name="length">00:00:05,000</property>
  <property name="eof">pause</property>
  <property name="resource">gfx/slide25.pdf.svg</property>
  <property name="ttl">25</property>
  <property name="aspect_ratio">1</property>
  <property name="progressive">1</property>
  <property name="seekable">1</property>
  <property name="meta.media.width">992</property>
  <property name="meta.media.height">744</property>
  <property name="mlt_service">qimage</property>
  <property name="kdenlive:clipname"/>
  <property name="kdenlive:duration">00:00:05,000</property>
  <property name="kdenlive:folderid">16</property>
  <property name="kdenlive:id">58</property>
  <property name="kdenlive:file_size">107476</property>
  <property name="kdenlive:file_hash">1f013cc80dfb90dd39c1950590c02cba</property>
 </producer>
 <producer id="producer40" in="00:00:00,000" out="00:00:04,983">
  <property name="length">00:00:05,000</property>
  <property name="eof">pause</property>
  <property name="resource">gfx/slide26.pdf.svg</property>
  <property name="ttl">25</property>
  <property name="aspect_ratio">1</property>
  <property name="progressive">1</property>
  <property name="seekable">1</property>
  <property name="meta.media.width">992</property>
  <property name="meta.media.height">744</property>
  <property name="mlt_service">qimage</property>
  <property name="kdenlive:clipname"/>
  <property name="kdenlive:duration">00:00:05,000</property>
  <property name="kdenlive:folderid">16</property>
  <property name="kdenlive:id">59</property>
  <property name="kdenlive:file_size">114050</property>
  <property name="kdenlive:file_hash">304fa07765c608b35767226181e07571</property>
 </producer>
 <producer id="producer41" in="00:00:00,000" out="00:00:04,983">
  <property name="length">00:00:05,000</property>
  <property name="eof">pause</property>
  <property name="resource">gfx/slide27.pdf.svg</property>
  <property name="ttl">25</property>
  <property name="aspect_ratio">1</property>
  <property name="progressive">1</property>
  <property name="seekable">1</property>
  <property name="meta.media.width">992</property>
  <property name="meta.media.height">744</property>
  <property name="mlt_service">qimage</property>
  <property name="kdenlive:clipname"/>
  <property name="kdenlive:duration">00:00:05,000</property>
  <property name="kdenlive:folderid">16</property>
  <property name="kdenlive:id">60</property>
  <property name="kdenlive:file_size">32829</property>
  <property name="kdenlive:file_hash">550cf8192a38d72d444c874a0562770b</property>
 </producer>
 <producer id="producer42" in="00:00:00,000" out="00:00:31,467">
  <property name="length">1889</property>
  <property name="eof">pause</property>
  <property name="resource">gfx/slide04.pdf.svg</property>
  <property name="ttl">25</property>
  <property name="aspect_ratio">1</property>
  <property name="progressive">1</property>
  <property name="seekable">1</property>
  <property name="meta.media.width">992</property>
  <property name="meta.media.height">744</property>
  <property name="mlt_service">qimage</property>
  <property name="kdenlive:clipname"/>
  <property name="kdenlive:duration">00:00:05,000</property>
  <property name="kdenlive:folderid">16</property>
  <property name="kdenlive:id">37</property>
  <property name="kdenlive:file_size">121674</property>
  <property name="kdenlive:file_hash">d323351ca629a23ffa1e2b13859c4066</property>
  <property name="global_feed">1</property>
 </producer>
 <producer id="producer43" in="00:00:00,000" out="00:00:12,317">
  <property name="length">00:00:12,333</property>
  <property name="eof">pause</property>
  <property name="resource">gfx/slide03.pdf.svg</property>
  <property name="ttl">25</property>
  <property name="aspect_ratio">1</property>
  <property name="progressive">1</property>
  <property name="seekable">1</property>
  <property name="meta.media.width">992</property>
  <property name="meta.media.height">744</property>
  <property name="mlt_service">qimage</property>
  <property name="kdenlive:clipname"/>
  <property name="kdenlive:duration">00:00:05,000</property>
  <property name="kdenlive:folderid">16</property>
  <property name="kdenlive:id">36</property>
  <property name="kdenlive:file_size">172773</property>
  <property name="kdenlive:file_hash">022fcd8eb8aa7f651fffb84e682fe06f</property>
  <property name="global_feed">1</property>
 </producer>
 <producer title="Anonymous Submission" id="producer44" in="00:00:00,000" out="00:00:48,483">
  <property name="length">2910</property>
  <property name="eof">pause</property>
  <property name="resource">media/videos/anim/1440p60/SequencePlotGrowComponents.mp4</property>
  <property name="audio_index">-1</property>
  <property name="video_index">0</property>
  <property name="mute_on_pause">0</property>
  <property name="mlt_service">avformat-novalidate</property>
  <property name="seekable">1</property>
  <property name="aspect_ratio">1</property>
  <property name="kdenlive:clipname"/>
  <property name="kdenlive:folderid">9</property>
  <property name="kdenlive:id">5</property>
  <property name="kdenlive:file_size">3015272</property>
  <property name="kdenlive:file_hash">a8e7128deb3ef047482a0cdcb94a305e</property>
  <property name="global_feed">1</property>
  <property name="meta.media.nb_streams">1</property>
  <property name="meta.media.0.stream.type">video</property>
  <property name="meta.media.0.stream.frame_rate">60</property>
  <property name="meta.media.0.stream.sample_aspect_ratio">0</property>
  <property name="meta.media.0.codec.width">2560</property>
  <property name="meta.media.0.codec.height">1440</property>
  <property name="meta.media.0.codec.rotate">0</property>
  <property name="meta.media.0.codec.frame_rate">60</property>
  <property name="meta.media.0.codec.pix_fmt">yuv420p</property>
  <property name="meta.media.0.codec.sample_aspect_ratio">0</property>
  <property name="meta.media.0.codec.colorspace">709</property>
  <property name="meta.media.0.codec.name">h264</property>
  <property name="meta.media.0.codec.long_name">H.264 / AVC / MPEG-4 AVC / MPEG-4 part 10</property>
  <property name="meta.media.0.codec.bit_rate">491724</property>
  <property name="meta.attr.0.stream.handler_name.markup">VideoHandler</property>
  <property name="meta.attr.major_brand.markup">isom</property>
  <property name="meta.attr.minor_version.markup">512</property>
  <property name="meta.attr.compatible_brands.markup">isomiso2avc1mp41</property>
  <property name="meta.attr.encoder.markup">Lavf58.29.100</property>
  <property name="meta.media.sample_aspect_num">1</property>
  <property name="meta.media.sample_aspect_den">1</property>
  <property name="meta.media.frame_rate_num">60</property>
  <property name="meta.media.frame_rate_den">1</property>
  <property name="meta.media.colorspace">709</property>
  <property name="meta.media.color_trc">2</property>
  <property name="meta.media.width">2560</property>
  <property name="meta.media.height">1440</property>
  <property name="meta.media.color_range">mpeg</property>
  <property name="meta.media.top_field_first">0</property>
  <property name="meta.media.progressive">1</property>
 </producer>
 <producer title="Anonymous Submission" id="producer45" in="00:00:00,000" out="00:07:02,483">
  <property name="length">25350</property>
  <property name="eof">pause</property>
  <property name="resource">media/videos/anim/1440p60/SequencePlotGrowComponentsFull.mp4</property>
  <property name="meta.media.nb_streams">1</property>
  <property name="meta.media.0.stream.type">video</property>
  <property name="meta.media.0.stream.frame_rate">60</property>
  <property name="meta.media.0.stream.sample_aspect_ratio">0</property>
  <property name="meta.media.0.codec.width">2560</property>
  <property name="meta.media.0.codec.height">1440</property>
  <property name="meta.media.0.codec.rotate">0</property>
  <property name="meta.media.0.codec.frame_rate">60</property>
  <property name="meta.media.0.codec.pix_fmt">yuv420p</property>
  <property name="meta.media.0.codec.sample_aspect_ratio">0</property>
  <property name="meta.media.0.codec.colorspace">709</property>
  <property name="meta.media.0.codec.name">h264</property>
  <property name="meta.media.0.codec.long_name">H.264 / AVC / MPEG-4 AVC / MPEG-4 part 10</property>
  <property name="meta.media.0.codec.bit_rate">830658</property>
  <property name="meta.attr.0.stream.handler_name.markup">VideoHandler</property>
  <property name="meta.attr.major_brand.markup">isom</property>
  <property name="meta.attr.minor_version.markup">512</property>
  <property name="meta.attr.compatible_brands.markup">isomiso2avc1mp41</property>
  <property name="meta.attr.encoder.markup">Lavf58.29.100</property>
  <property name="seekable">1</property>
  <property name="meta.media.sample_aspect_num">1</property>
  <property name="meta.media.sample_aspect_den">1</property>
  <property name="aspect_ratio">1</property>
  <property name="audio_index">-1</property>
  <property name="video_index">0</property>
  <property name="mute_on_pause">0</property>
  <property name="mlt_service">avformat-novalidate</property>
  <property name="kdenlive:clipname"/>
  <property name="kdenlive:folderid">9</property>
  <property name="meta.media.frame_rate_num">60</property>
  <property name="meta.media.frame_rate_den">1</property>
  <property name="meta.media.colorspace">709</property>
  <property name="meta.media.color_trc">2</property>
  <property name="meta.media.width">2560</property>
  <property name="meta.media.height">1440</property>
  <property name="meta.media.color_range">mpeg</property>
  <property name="kdenlive:id">61</property>
  <property name="kdenlive:file_size">44161350</property>
  <property name="kdenlive:file_hash">23e1af5add7106270578b7d0c62fbca5</property>
  <property name="meta.media.top_field_first">0</property>
  <property name="meta.media.progressive">1</property>
  <property name="global_feed">1</property>
 </producer>
 <producer id="producer46" in="00:00:00,000" out="00:00:27,833">
  <property name="length">1671</property>
  <property name="eof">pause</property>
  <property name="resource">resources/2014 Persistence based online signal and trajectory simplification for mobile devices.1.svg</property>
  <property name="ttl">25</property>
  <property name="aspect_ratio">1</property>
  <property name="progressive">1</property>
  <property name="seekable">1</property>
  <property name="meta.media.width">765</property>
  <property name="meta.media.height">990</property>
  <property name="mlt_service">qimage</property>
  <property name="kdenlive:clipname"/>
  <property name="kdenlive:duration">00:00:05,000</property>
  <property name="kdenlive:folderid">-1</property>
  <property name="kdenlive:id">62</property>
  <property name="kdenlive:file_size">574834</property>
  <property name="kdenlive:file_hash">6017e567d9f517cc54c03d6554fdb446</property>
 </producer>
 <producer id="producer47" in="00:00:00,000" out="00:00:04,983">
  <property name="length">00:00:05,000</property>
  <property name="eof">pause</property>
  <property name="resource">0xffffffff</property>
  <property name="aspect_ratio">1</property>
  <property name="mlt_service">color</property>
  <property name="kdenlive:clipname">white</property>
  <property name="kdenlive:duration">00:00:05,000</property>
  <property name="kdenlive:folderid">-1</property>
  <property name="kdenlive:id">63</property>
  <property name="kdenlive:file_hash">039b56a692cd66eefeea44a17539e5a2</property>
 </producer>
 <producer title="Anonymous Submission" id="producer48" in="00:00:00,000" out="00:00:05,983">
  <property name="length">360</property>
  <property name="eof">pause</property>
  <property name="resource">media/videos/anim/1440p60/IntroScene.mp4</property>
  <property name="audio_index">-1</property>
  <property name="video_index">0</property>
  <property name="mute_on_pause">0</property>
  <property name="mlt_service">avformat-novalidate</property>
  <property name="seekable">1</property>
  <property name="aspect_ratio">1</property>
  <property name="kdenlive:clipname"/>
  <property name="kdenlive:folderid">9</property>
  <property name="kdenlive:id">3</property>
  <property name="kdenlive:file_size">252076</property>
  <property name="kdenlive:file_hash">a9f0e36987a78a523c17c236f29ac5cb</property>
  <property name="global_feed">1</property>
  <property name="meta.media.nb_streams">1</property>
  <property name="meta.media.0.stream.type">video</property>
  <property name="meta.media.0.stream.frame_rate">60</property>
  <property name="meta.media.0.stream.sample_aspect_ratio">0</property>
  <property name="meta.media.0.codec.width">2560</property>
  <property name="meta.media.0.codec.height">1440</property>
  <property name="meta.media.0.codec.rotate">0</property>
  <property name="meta.media.0.codec.frame_rate">60</property>
  <property name="meta.media.0.codec.pix_fmt">yuv420p</property>
  <property name="meta.media.0.codec.sample_aspect_ratio">0</property>
  <property name="meta.media.0.codec.colorspace">709</property>
  <property name="meta.media.0.codec.name">h264</property>
  <property name="meta.media.0.codec.long_name">H.264 / AVC / MPEG-4 AVC / MPEG-4 part 10</property>
  <property name="meta.media.0.codec.bit_rate">329324</property>
  <property name="meta.attr.0.stream.handler_name.markup">VideoHandler</property>
  <property name="meta.attr.major_brand.markup">isom</property>
  <property name="meta.attr.minor_version.markup">512</property>
  <property name="meta.attr.compatible_brands.markup">isomiso2avc1mp41</property>
  <property name="meta.attr.encoder.markup">Lavf58.29.100</property>
  <property name="meta.media.sample_aspect_num">1</property>
  <property name="meta.media.sample_aspect_den">1</property>
  <property name="meta.media.frame_rate_num">60</property>
  <property name="meta.media.frame_rate_den">1</property>
  <property name="meta.media.colorspace">709</property>
  <property name="meta.media.color_trc">2</property>
  <property name="meta.media.width">2560</property>
  <property name="meta.media.height">1440</property>
  <property name="meta.media.color_range">mpeg</property>
 </producer>
 <producer title="Anonymous Submission" id="producer49" in="00:00:00,000" out="00:04:53,783">
  <property name="length">17628</property>
  <property name="eof">pause</property>
  <property name="resource">audio/recording_project.mp3</property>
  <property name="meta.media.nb_streams">1</property>
  <property name="meta.media.0.stream.type">audio</property>
  <property name="meta.media.0.codec.sample_fmt">fltp</property>
  <property name="meta.media.0.codec.sample_rate">44100</property>
  <property name="meta.media.0.codec.channels">1</property>
  <property name="meta.media.0.codec.name">mp3float</property>
  <property name="meta.media.0.codec.long_name">MP3 (MPEG audio layer 3)</property>
  <property name="meta.media.0.codec.bit_rate">320000</property>
  <property name="meta.attr.0.stream.encoder.markup">LAME3.100</property>
  <property name="seekable">1</property>
  <property name="audio_index">0</property>
  <property name="video_index">-1</property>
  <property name="mute_on_pause">1</property>
  <property name="mlt_service">avformat</property>
  <property name="kdenlive:clipname"/>
  <property name="kdenlive:folderid">10</property>
  <property name="kdenlive:id">64</property>
  <property name="kdenlive:file_size">11753011</property>
  <property name="kdenlive:file_hash">9ab6ec8c4f4c1dc07cf35e3d3f6ac83b</property>
  <property name="global_feed">1</property>
 </producer>
 <producer id="producer50" in="00:00:00,000" out="00:00:05,417">
  <property name="length">00:00:05,433</property>
  <property name="eof">pause</property>
  <property name="resource">gfx/slide23.pdf.svg</property>
  <property name="ttl">25</property>
  <property name="aspect_ratio">1</property>
  <property name="progressive">1</property>
  <property name="seekable">1</property>
  <property name="meta.media.width">992</property>
  <property name="meta.media.height">744</property>
  <property name="mlt_service">qimage</property>
  <property name="kdenlive:clipname"/>
  <property name="kdenlive:duration">00:00:05,000</property>
  <property name="kdenlive:folderid">16</property>
  <property name="kdenlive:id">56</property>
  <property name="kdenlive:file_size">159485</property>
  <property name="kdenlive:file_hash">62e1b3e90e113746a267e444f6331103</property>
  <property name="global_feed">1</property>
 </producer>
 <producer title="Anonymous Submission" id="producer51" in="00:00:00,000" out="00:00:21,783">
  <property name="length">1308</property>
  <property name="eof">pause</property>
  <property name="resource">media/videos/anim/1440p60/SequencePlotSweepline.mp4</property>
  <property name="audio_index">-1</property>
  <property name="video_index">0</property>
  <property name="mute_on_pause">0</property>
  <property name="mlt_service">avformat-novalidate</property>
  <property name="seekable">1</property>
  <property name="aspect_ratio">1</property>
  <property name="kdenlive:clipname"/>
  <property name="kdenlive:folderid">9</property>
  <property name="kdenlive:id">7</property>
  <property name="kdenlive:file_size">1775160</property>
  <property name="kdenlive:file_hash">e8adcfb60d0288d0446f54c9f73ee705</property>
  <property name="global_feed">1</property>
  <property name="meta.media.nb_streams">1</property>
  <property name="meta.media.0.stream.type">video</property>
  <property name="meta.media.0.stream.frame_rate">60</property>
  <property name="meta.media.0.stream.sample_aspect_ratio">0</property>
  <property name="meta.media.0.codec.width">2560</property>
  <property name="meta.media.0.codec.height">1440</property>
  <property name="meta.media.0.codec.rotate">0</property>
  <property name="meta.media.0.codec.frame_rate">60</property>
  <property name="meta.media.0.codec.pix_fmt">yuv420p</property>
  <property name="meta.media.0.codec.sample_aspect_ratio">0</property>
  <property name="meta.media.0.codec.colorspace">709</property>
  <property name="meta.media.0.codec.name">h264</property>
  <property name="meta.media.0.codec.long_name">H.264 / AVC / MPEG-4 AVC / MPEG-4 part 10</property>
  <property name="meta.media.0.codec.bit_rate">645675</property>
  <property name="meta.attr.0.stream.handler_name.markup">VideoHandler</property>
  <property name="meta.attr.major_brand.markup">isom</property>
  <property name="meta.attr.minor_version.markup">512</property>
  <property name="meta.attr.compatible_brands.markup">isomiso2avc1mp41</property>
  <property name="meta.attr.encoder.markup">Lavf58.29.100</property>
  <property name="meta.media.sample_aspect_num">1</property>
  <property name="meta.media.sample_aspect_den">1</property>
  <property name="meta.media.frame_rate_num">60</property>
  <property name="meta.media.frame_rate_den">1</property>
  <property name="meta.media.colorspace">709</property>
  <property name="meta.media.color_trc">2</property>
  <property name="meta.media.width">2560</property>
  <property name="meta.media.height">1440</property>
  <property name="meta.media.color_range">mpeg</property>
  <property name="meta.media.top_field_first">0</property>
  <property name="meta.media.progressive">1</property>
 </producer>
 <producer id="producer52" in="00:00:00,000" out="00:00:09,600">
  <property name="length">577</property>
  <property name="eof">pause</property>
  <property name="resource">gfx/Screenshot_20210503_221838.png</property>
  <property name="ttl">25</property>
  <property name="aspect_ratio">1</property>
  <property name="progressive">1</property>
  <property name="seekable">1</property>
  <property name="meta.media.width">337</property>
  <property name="meta.media.height">263</property>
  <property name="mlt_service">qimage</property>
  <property name="kdenlive:clipname"/>
  <property name="kdenlive:duration">00:00:05,000</property>
  <property name="kdenlive:folderid">9</property>
  <property name="kdenlive:id">65</property>
  <property name="kdenlive:file_size">20166</property>
  <property name="kdenlive:file_hash">03680ca2838d9e9cc8bac39fbf10c6fe</property>
  <property name="global_feed">1</property>
 </producer>
 <producer id="producer53" in="00:00:00,000" out="00:00:12,033">
  <property name="length">00:00:12,050</property>
  <property name="eof">pause</property>
  <property name="resource">gfx/slide19.pdf.svg</property>
  <property name="ttl">25</property>
  <property name="aspect_ratio">1</property>
  <property name="progressive">1</property>
  <property name="seekable">1</property>
  <property name="meta.media.width">992</property>
  <property name="meta.media.height">744</property>
  <property name="mlt_service">qimage</property>
  <property name="kdenlive:clipname"/>
  <property name="kdenlive:duration">00:00:05,000</property>
  <property name="kdenlive:folderid">16</property>
  <property name="kdenlive:id">52</property>
  <property name="kdenlive:file_size">241838</property>
  <property name="kdenlive:file_hash">3eb05e4e331d5b65e0c32f533058b783</property>
  <property name="global_feed">1</property>
 </producer>
 <producer id="producer54" in="00:00:00,000" out="00:00:13,850">
  <property name="length">00:00:13,867</property>
  <property name="eof">pause</property>
  <property name="resource">gfx/slide18.pdf.svg</property>
  <property name="ttl">25</property>
  <property name="aspect_ratio">1</property>
  <property name="progressive">1</property>
  <property name="seekable">1</property>
  <property name="meta.media.width">992</property>
  <property name="meta.media.height">744</property>
  <property name="mlt_service">qimage</property>
  <property name="kdenlive:clipname"/>
  <property name="kdenlive:duration">00:00:05,000</property>
  <property name="kdenlive:folderid">16</property>
  <property name="kdenlive:id">51</property>
  <property name="kdenlive:file_size">143440</property>
  <property name="kdenlive:file_hash">122188f681aa0d285ad8349f113151a0</property>
  <property name="global_feed">1</property>
 </producer>
 <playlist id="main_bin">
  <property name="kdenlive:docproperties.activeTrack">3</property>
  <property name="kdenlive:docproperties.audioTarget">1</property>
  <property name="kdenlive:docproperties.decimalPoint">,</property>
  <property name="kdenlive:docproperties.disablepreview">0</property>
  <property name="kdenlive:docproperties.documentid">1619814521489</property>
  <property name="kdenlive:docproperties.enableTimelineZone">0</property>
  <property name="kdenlive:docproperties.enableexternalproxy">0</property>
  <property name="kdenlive:docproperties.enableproxy">0</property>
  <property name="kdenlive:docproperties.externalproxyparams"/>
  <property name="kdenlive:docproperties.generateimageproxy">0</property>
  <property name="kdenlive:docproperties.generateproxy">0</property>
  <property name="kdenlive:docproperties.groups">[
]
</property>
  <property name="kdenlive:docproperties.kdenliveversion">19.12.3</property>
  <property name="kdenlive:docproperties.position">18475</property>
  <property name="kdenlive:docproperties.previewextension">mkv</property>
  <property name="kdenlive:docproperties.previewparameters">vcodec=h264_nvenc g=1 bf=0 profile=0 preset=fast qmin=10 qmax=30</property>
  <property name="kdenlive:docproperties.profile">qhd_1440p_60</property>
  <property name="kdenlive:docproperties.proxyextension"/>
  <property name="kdenlive:docproperties.proxyimageminsize">2000</property>
  <property name="kdenlive:docproperties.proxyimagesize">800</property>
  <property name="kdenlive:docproperties.proxyminsize">1000</property>
  <property name="kdenlive:docproperties.proxyparams"/>
  <property name="kdenlive:docproperties.scrollPos">0</property>
  <property name="kdenlive:docproperties.seekOffset">30000</property>
  <property name="kdenlive:docproperties.storagefolder">video_project/1619814521489</property>
  <property name="kdenlive:docproperties.version">0.99</property>
  <property name="kdenlive:docproperties.verticalzoom">1</property>
  <property name="kdenlive:docproperties.videoTarget">2</property>
  <property name="kdenlive:docproperties.zonein">0</property>
  <property name="kdenlive:docproperties.zoneout">75</property>
  <property name="kdenlive:docproperties.zoom">14</property>
  <property name="kdenlive:documentnotes">&lt;!DOCTYPE HTML PUBLIC "-//W3C//DTD HTML 4.0//EN" "http://www.w3.org/TR/REC-html40/strict.dtd">
&lt;html>&lt;head>&lt;meta name="qrichtext" content="1" />&lt;style type="text/css">
p, li { white-space: pre-wrap; }
&lt;/style>&lt;/head>&lt;body style=" font-family:'Noto Sans'; font-size:10pt; font-weight:400; font-style:normal;">
&lt;p style=" margin-top:0px; margin-bottom:0px; margin-left:0px; margin-right:0px; -qt-block-indent:0; text-indent:0px;">&lt;a href="0">&lt;span style=" text-decoration: underline; color:#2980b9;">00:00:00:00&lt;/span>&lt;/a> &lt;/p>&lt;/body>&lt;/html></property>
  <property name="kdenlive:folder.-1.9">vid</property>
  <property name="kdenlive:folder.-1.10">audio</property>
  <property name="kdenlive:docproperties.dirtypreviewchunks"/>
  <property name="kdenlive:docproperties.previewchunks"/>
  <property name="kdenlive:folder.-1.16">slides</property>
  <property name="kdenlive:docproperties.renderaudioquality">6</property>
  <property name="kdenlive:docproperties.rendercategory">Generic (HD for web, mobile devices...)</property>
  <property name="kdenlive:docproperties.renderendguide">-1</property>
  <property name="kdenlive:docproperties.renderexportaudio">0</property>
  <property name="kdenlive:docproperties.renderfield">0</property>
  <property name="kdenlive:docproperties.renderguide">0</property>
  <property name="kdenlive:docproperties.renderplay">0</property>
  <property name="kdenlive:docproperties.renderprofile">WebM - the widespread free format (VP8/Vorbis)</property>
  <property name="kdenlive:docproperties.renderquality">23</property>
  <property name="kdenlive:docproperties.renderratio">1</property>
  <property name="kdenlive:docproperties.renderrescale">0</property>
  <property name="kdenlive:docproperties.renderrescaleheight">720</property>
  <property name="kdenlive:docproperties.renderrescalewidth">1280</property>
  <property name="kdenlive:docproperties.renderscanning">0</property>
  <property name="kdenlive:docproperties.renderspeed">2</property>
  <property name="kdenlive:docproperties.renderstartguide">-1</property>
  <property name="kdenlive:docproperties.rendertcoverlay">0</property>
  <property name="kdenlive:docproperties.rendertctype">0</property>
  <property name="kdenlive:docproperties.rendertwopass">0</property>
  <property name="kdenlive:docproperties.renderurl">video_project/persistence_tutorial.webm</property>
  <property name="kdenlive:docproperties.renderzone">0</property>
  <property name="xml_retain">1</property>
  <entry producer="producer0" in="00:00:00,000" out="00:00:15,183"/>
  <entry producer="producer1" in="00:00:00,000" out="00:00:19,283"/>
  <entry producer="producer2" in="00:00:00,000" out="00:00:15,183"/>
  <entry producer="producer3" in="00:00:00,000" out="00:00:03,983"/>
  <entry producer="producer4" in="00:00:00,000" out="00:00:44,700"/>
  <entry producer="producer5" in="00:00:00,000" out="00:01:08,983"/>
  <entry producer="producer6" in="00:00:00,000" out="00:00:10,983"/>
  <entry producer="producer7" in="00:00:00,000" out="00:00:04,983"/>
  <entry producer="producer8" in="00:00:00,000" out="00:00:04,983"/>
  <entry producer="producer9" in="00:00:00,000" out="00:00:04,983"/>
  <entry producer="producer10" in="00:00:00,000" out="00:00:04,983"/>
  <entry producer="producer11" in="00:00:00,000" out="00:00:04,983"/>
  <entry producer="producer12" in="00:00:00,000" out="00:00:04,983"/>
  <entry producer="producer13" in="00:00:00,000" out="00:00:04,983"/>
  <entry producer="producer14" in="00:00:00,000" out="00:00:04,983"/>
  <entry producer="producer15" in="00:00:00,000" out="00:00:04,983"/>
  <entry producer="producer16" in="00:00:00,000" out="00:00:04,983"/>
  <entry producer="producer17" in="00:00:00,000" out="00:00:04,983"/>
  <entry producer="producer18" in="00:00:00,000" out="00:00:04,983"/>
  <entry producer="producer19" in="00:00:00,000" out="00:00:04,983"/>
  <entry producer="producer20" in="00:00:00,000" out="00:00:04,983"/>
  <entry producer="producer21" in="00:00:00,000" out="00:00:04,983"/>
  <entry producer="producer22" in="00:00:00,000" out="00:00:04,983"/>
  <entry producer="producer23" in="00:00:00,000" out="00:00:04,983"/>
  <entry producer="producer24" in="00:00:00,000" out="00:00:04,983"/>
  <entry producer="producer25" in="00:00:00,000" out="00:00:04,983"/>
  <entry producer="producer26" in="00:00:00,000" out="00:00:04,983"/>
  <entry producer="producer27" in="00:00:00,000" out="00:00:04,983"/>
  <entry producer="producer28" in="00:00:00,000" out="00:00:04,983"/>
  <entry producer="producer29" in="00:00:00,000" out="00:00:04,983"/>
  <entry producer="producer30" in="00:00:00,000" out="00:00:04,983"/>
  <entry producer="producer31" in="00:00:00,000" out="00:00:04,983"/>
  <entry producer="producer32" in="00:00:00,000" out="00:00:04,983"/>
  <entry producer="producer33" in="00:00:00,000" out="00:00:04,983"/>
  <entry producer="producer34" in="00:00:00,000" out="00:00:04,983"/>
  <entry producer="producer35" in="00:00:00,000" out="00:00:04,983"/>
  <entry producer="producer36" in="00:00:00,000" out="00:00:04,983"/>
  <entry producer="producer37" in="00:00:00,000" out="00:00:04,983"/>
  <entry producer="producer38" in="00:00:00,000" out="00:00:04,983"/>
  <entry producer="producer39" in="00:00:00,000" out="00:00:04,983"/>
  <entry producer="producer40" in="00:00:00,000" out="00:00:04,983"/>
  <entry producer="producer41" in="00:00:00,000" out="00:00:04,983"/>
  <entry producer="producer42" in="00:00:00,000" out="00:00:10,500"/>
  <entry producer="producer43" in="00:00:00,000" out="00:00:12,317"/>
  <entry producer="producer44" in="00:00:00,000" out="00:00:48,483"/>
  <entry producer="producer45" in="00:00:00,000" out="00:07:02,483"/>
  <entry producer="producer46" in="00:00:00,000" out="00:00:04,983"/>
  <entry producer="producer47" in="00:00:00,000" out="00:00:04,983"/>
  <entry producer="producer48" in="00:00:00,000" out="00:00:05,983"/>
  <entry producer="producer49" in="00:00:00,000" out="00:04:53,783"/>
  <entry producer="producer50" in="00:00:00,000" out="00:00:05,417"/>
  <entry producer="producer51" in="00:00:00,000" out="00:00:21,783"/>
  <entry producer="producer52" in="00:00:00,000" out="00:00:04,983"/>
  <entry producer="producer53" in="00:00:00,000" out="00:00:12,033"/>
  <entry producer="producer54" in="00:00:00,000" out="00:00:13,850"/>
 </playlist>
 <producer id="black_track" in="00:00:00,000" out="00:13:37,450">
  <property name="length">2147483647</property>
  <property name="eof">continue</property>
  <property name="resource">black</property>
  <property name="aspect_ratio">1</property>
  <property name="mlt_service">color</property>
  <property name="mlt_image_format">rgb24a</property>
  <property name="set.test_audio">0</property>
 </producer>
 <playlist id="playlist0"/>
 <playlist id="playlist1"/>
 <tractor id="tractor0" in="00:00:00,000">
  <property name="kdenlive:audio_track">1</property>
  <property name="kdenlive:trackheight">64</property>
  <track hide="video" producer="playlist0"/>
  <track hide="video" producer="playlist1"/>
  <filter id="filter0">
   <property name="window">75</property>
   <property name="max_gain">20dB</property>
   <property name="mlt_service">volume</property>
   <property name="internal_added">237</property>
   <property name="disable">1</property>
  </filter>
  <filter id="filter1">
   <property name="channel">-1</property>
   <property name="mlt_service">panner</property>
   <property name="internal_added">237</property>
   <property name="start">0,5</property>
   <property name="disable">1</property>
  </filter>
  <filter id="filter2">
   <property name="iec_scale">0</property>
   <property name="mlt_service">audiolevel</property>
  </filter>
 </tractor>
 <producer title="Anonymous Submission" id="producer55" in="00:00:00,000" out="00:04:53,783">
  <property name="length">17628</property>
  <property name="eof">pause</property>
  <property name="resource">audio/recording_project.mp3</property>
  <property name="meta.media.nb_streams">1</property>
  <property name="meta.media.0.stream.type">audio</property>
  <property name="meta.media.0.codec.sample_fmt">fltp</property>
  <property name="meta.media.0.codec.sample_rate">44100</property>
  <property name="meta.media.0.codec.channels">1</property>
  <property name="meta.media.0.codec.name">mp3float</property>
  <property name="meta.media.0.codec.long_name">MP3 (MPEG audio layer 3)</property>
  <property name="meta.media.0.codec.bit_rate">320000</property>
  <property name="meta.attr.0.stream.encoder.markup">LAME3.100</property>
  <property name="seekable">1</property>
  <property name="audio_index">0</property>
  <property name="video_index">-1</property>
  <property name="mute_on_pause">0</property>
  <property name="mlt_service">avformat-novalidate</property>
  <property name="kdenlive:clipname"/>
  <property name="kdenlive:folderid">10</property>
  <property name="kdenlive:id">64</property>
  <property name="kdenlive:file_size">11753011</property>
  <property name="kdenlive:file_hash">9ab6ec8c4f4c1dc07cf35e3d3f6ac83b</property>
  <property name="global_feed">1</property>
  <property name="xml">was here</property>
  <property name="set.test_audio">0</property>
  <property name="set.test_image">1</property>
 </producer>
 <playlist id="playlist2">
  <property name="kdenlive:audio_track">1</property>
  <blank length="00:00:06,583"/>
  <entry producer="producer55" in="00:00:00,000" out="00:01:30,000">
   <property name="kdenlive:id">64</property>
  </entry>
  <entry producer="producer55" in="00:01:50,917" out="00:01:54,367">
   <property name="kdenlive:id">64</property>
  </entry>
  <entry producer="producer55" in="00:01:55,183" out="00:01:59,050">
   <property name="kdenlive:id">64</property>
  </entry>
  <blank length="00:00:03,217"/>
  <entry producer="producer55" in="00:01:59,067" out="00:02:16,183">
   <property name="kdenlive:id">64</property>
  </entry>
  <blank length="00:00:05,100"/>
  <entry producer="producer55" in="00:02:16,200" out="00:04:00,167">
   <property name="kdenlive:id">64</property>
  </entry>
  <blank length="00:00:13,883"/>
  <entry producer="producer55" in="00:04:00,183" out="00:04:53,783">
   <property name="kdenlive:id">64</property>
  </entry>
  <filter id="filter3">
   <property name="window">75</property>
   <property name="max_gain">20dB</property>
   <property name="mlt_service">volume</property>
   <property name="internal_added">237</property>
   <property name="disable">1</property>
  </filter>
  <filter id="filter4">
   <property name="channel">-1</property>
   <property name="mlt_service">panner</property>
   <property name="internal_added">237</property>
   <property name="start">0,5</property>
   <property name="disable">1</property>
  </filter>
 </playlist>
 <playlist id="playlist3">
  <property name="kdenlive:audio_track">1</property>
 </playlist>
 <tractor id="tractor1" in="00:00:00,000" out="00:05:00,867">
  <property name="kdenlive:audio_track">1</property>
  <property name="kdenlive:trackheight">64</property>
  <property name="kdenlive:collapsed">0</property>
  <property name="kdenlive:thumbs_format"/>
  <property name="kdenlive:audio_rec"/>
  <property name="kdenlive:timeline_active">1</property>
  <property name="kdenlive:track_name">YSC</property>
  <track hide="video" producer="playlist2"/>
  <track hide="video" producer="playlist3"/>
  <filter id="filter5">
   <property name="iec_scale">0</property>
   <property name="mlt_service">audiolevel</property>
  </filter>
 </tractor>
 <playlist id="playlist4">
  <entry producer="producer7" in="00:00:00,000" out="00:05:17,433">
   <property name="kdenlive:id">15</property>
  </entry>
 </playlist>
 <playlist id="playlist5"/>
 <tractor id="tractor2" in="00:00:00,000" out="00:05:17,433">
  <property name="kdenlive:trackheight">64</property>
  <property name="kdenlive:collapsed">0</property>
  <property name="kdenlive:thumbs_format"/>
  <property name="kdenlive:audio_rec"/>
  <property name="kdenlive:timeline_active">1</property>
  <track hide="audio" producer="playlist4"/>
  <track hide="audio" producer="playlist5"/>
 </tractor>
 <producer title="Anonymous Submission" id="producer56" in="00:00:00,000" out="00:00:05,983">
  <property name="length">360</property>
  <property name="eof">pause</property>
  <property name="resource">media/videos/anim/1440p60/IntroScene.mp4</property>
  <property name="audio_index">-1</property>
  <property name="video_index">0</property>
  <property name="mute_on_pause">0</property>
  <property name="mlt_service">avformat-novalidate</property>
  <property name="seekable">1</property>
  <property name="aspect_ratio">1</property>
  <property name="kdenlive:clipname"/>
  <property name="kdenlive:folderid">9</property>
  <property name="kdenlive:id">3</property>
  <property name="kdenlive:file_size">252076</property>
  <property name="kdenlive:file_hash">a9f0e36987a78a523c17c236f29ac5cb</property>
  <property name="global_feed">1</property>
  <property name="xml">was here</property>
  <property name="meta.media.nb_streams">1</property>
  <property name="meta.media.0.stream.type">video</property>
  <property name="meta.media.0.stream.frame_rate">60</property>
  <property name="meta.media.0.stream.sample_aspect_ratio">0</property>
  <property name="meta.media.0.codec.width">2560</property>
  <property name="meta.media.0.codec.height">1440</property>
  <property name="meta.media.0.codec.rotate">0</property>
  <property name="meta.media.0.codec.frame_rate">60</property>
  <property name="meta.media.0.codec.pix_fmt">yuv420p</property>
  <property name="meta.media.0.codec.sample_aspect_ratio">0</property>
  <property name="meta.media.0.codec.colorspace">709</property>
  <property name="meta.media.0.codec.name">h264</property>
  <property name="meta.media.0.codec.long_name">H.264 / AVC / MPEG-4 AVC / MPEG-4 part 10</property>
  <property name="meta.media.0.codec.bit_rate">329324</property>
  <property name="meta.attr.0.stream.handler_name.markup">VideoHandler</property>
  <property name="meta.attr.major_brand.markup">isom</property>
  <property name="meta.attr.minor_version.markup">512</property>
  <property name="meta.attr.compatible_brands.markup">isomiso2avc1mp41</property>
  <property name="meta.attr.encoder.markup">Lavf58.29.100</property>
  <property name="meta.media.sample_aspect_num">1</property>
  <property name="meta.media.sample_aspect_den">1</property>
  <property name="meta.media.frame_rate_num">60</property>
  <property name="meta.media.frame_rate_den">1</property>
  <property name="meta.media.colorspace">709</property>
  <property name="meta.media.color_trc">2</property>
  <property name="meta.media.width">2560</property>
  <property name="meta.media.height">1440</property>
  <property name="meta.media.color_range">mpeg</property>
  <property name="set.test_audio">1</property>
  <property name="set.test_image">0</property>
  <property name="meta.media.top_field_first">0</property>
  <property name="meta.media.progressive">1</property>
 </producer>
 <producer title="Anonymous Submission" id="producer57" in="00:00:00,000" out="00:00:15,183">
  <property name="length">912</property>
  <property name="eof">pause</property>
  <property name="resource">media/videos/anim/1440p60/SequencePlotTraj.mp4</property>
  <property name="audio_index">-1</property>
  <property name="video_index">0</property>
  <property name="mute_on_pause">0</property>
  <property name="mlt_service">avformat-novalidate</property>
  <property name="seekable">1</property>
  <property name="aspect_ratio">1</property>
  <property name="kdenlive:clipname"/>
  <property name="kdenlive:folderid">9</property>
  <property name="kdenlive:id">8</property>
  <property name="kdenlive:file_size">1068033</property>
  <property name="kdenlive:file_hash">dcc470176942dcab04184c0aacf7ec17</property>
  <property name="global_feed">1</property>
  <property name="xml">was here</property>
  <property name="meta.media.nb_streams">1</property>
  <property name="meta.media.0.stream.type">video</property>
  <property name="meta.media.0.stream.frame_rate">60</property>
  <property name="meta.media.0.stream.sample_aspect_ratio">0</property>
  <property name="meta.media.0.codec.width">2560</property>
  <property name="meta.media.0.codec.height">1440</property>
  <property name="meta.media.0.codec.rotate">0</property>
  <property name="meta.media.0.codec.frame_rate">60</property>
  <property name="meta.media.0.codec.pix_fmt">yuv420p</property>
  <property name="meta.media.0.codec.sample_aspect_ratio">0</property>
  <property name="meta.media.0.codec.colorspace">709</property>
  <property name="meta.media.0.codec.name">h264</property>
  <property name="meta.media.0.codec.long_name">H.264 / AVC / MPEG-4 AVC / MPEG-4 part 10</property>
  <property name="meta.media.0.codec.bit_rate">556175</property>
  <property name="meta.attr.0.stream.handler_name.markup">VideoHandler</property>
  <property name="meta.attr.major_brand.markup">isom</property>
  <property name="meta.attr.minor_version.markup">512</property>
  <property name="meta.attr.compatible_brands.markup">isomiso2avc1mp41</property>
  <property name="meta.attr.encoder.markup">Lavf58.29.100</property>
  <property name="meta.media.sample_aspect_num">1</property>
  <property name="meta.media.sample_aspect_den">1</property>
  <property name="meta.media.frame_rate_num">60</property>
  <property name="meta.media.frame_rate_den">1</property>
  <property name="meta.media.colorspace">709</property>
  <property name="meta.media.color_trc">2</property>
  <property name="meta.media.width">2560</property>
  <property name="meta.media.height">1440</property>
  <property name="meta.media.color_range">mpeg</property>
  <property name="meta.media.top_field_first">0</property>
  <property name="meta.media.progressive">1</property>
  <property name="set.test_audio">1</property>
  <property name="set.test_image">0</property>
 </producer>
 <producer id="producer58" in="00:00:00,000" out="00:00:34,483">
  <property name="length">2070</property>
  <property name="eof">pause</property>
  <property name="resource">2,000000:media/videos/anim/1440p60/Titles.mp4</property>
  <property name="aspect_ratio">1</property>
  <property name="meta.media.nb_streams">1</property>
  <property name="meta.media.0.stream.type">video</property>
  <property name="meta.media.0.stream.frame_rate">60</property>
  <property name="meta.media.0.stream.sample_aspect_ratio">0</property>
  <property name="meta.media.0.codec.width">2560</property>
  <property name="meta.media.0.codec.height">1440</property>
  <property name="meta.media.0.codec.rotate">0</property>
  <property name="meta.media.0.codec.frame_rate">60</property>
  <property name="meta.media.0.codec.pix_fmt">yuv420p</property>
  <property name="meta.media.0.codec.sample_aspect_ratio">0</property>
  <property name="meta.media.0.codec.colorspace">709</property>
  <property name="meta.media.0.codec.name">h264</property>
  <property name="meta.media.0.codec.long_name">H.264 / AVC / MPEG-4 AVC / MPEG-4 part 10</property>
  <property name="meta.media.0.codec.bit_rate">118140</property>
  <property name="meta.attr.0.stream.handler_name.markup">VideoHandler</property>
  <property name="meta.attr.major_brand.markup">isom</property>
  <property name="meta.attr.minor_version.markup">512</property>
  <property name="meta.attr.compatible_brands.markup">isomiso2avc1mp41</property>
  <property name="meta.attr.encoder.markup">Lavf58.29.100</property>
  <property name="seekable">1</property>
  <property name="meta.media.sample_aspect_num">1</property>
  <property name="meta.media.sample_aspect_den">1</property>
  <property name="audio_index">-1</property>
  <property name="video_index">0</property>
  <property name="mute_on_pause">1</property>
  <property name="warp_speed">2</property>
  <property name="warp_resource">media/videos/anim/1440p60/Titles.mp4</property>
  <property name="mlt_service">timewarp</property>
  <property name="set.test_audio">1</property>
  <property name="set.test_image">0</property>
  <property name="meta.media.frame_rate_num">60</property>
  <property name="meta.media.frame_rate_den">1</property>
  <property name="meta.media.colorspace">709</property>
  <property name="meta.media.color_trc">2</property>
  <property name="meta.media.width">2560</property>
  <property name="meta.media.height">1440</property>
  <property name="meta.media.color_range">mpeg</property>
  <property name="meta.media.top_field_first">0</property>
  <property name="meta.media.progressive">1</property>
 </producer>
 <playlist id="playlist6">
  <entry producer="producer56" in="00:00:00,000" out="00:00:03,517">
   <property name="kdenlive:id">3</property>
  </entry>
  <entry producer="producer6" in="00:00:00,000" out="00:00:10,983">
   <property name="kdenlive:id">13</property>
  </entry>
  <blank length="00:00:13,650"/>
  <entry producer="producer19" in="00:00:00,000" out="00:00:09,300">
   <property name="kdenlive:id">33</property>
  </entry>
  <blank length="00:01:19,717"/>
  <entry producer="producer57" in="00:00:00,000" out="00:00:15,183">
   <property name="kdenlive:id">8</property>
   <filter id="filter6">
    <property name="rotate_center">1</property>
    <property name="mlt_service">qtblend</property>
    <property name="kdenlive_id">qtblend</property>
    <property name="rect">00:00:00,000=-6 260 1353 1012 1</property>
    <property name="rotation">00:00:00,000=0</property>
    <property name="compositing">0</property>
    <property name="distort">0</property>
    <property name="kdenlive:collapsed">0</property>
   </filter>
  </entry>
  <entry producer="producer58" in="00:00:14,000" out="00:00:17,483">
   <property name="kdenlive:id">12</property>
  </entry>
  <blank length="00:01:02,850"/>
  <entry producer="producer44" in="00:00:00,000" out="00:00:48,483">
   <property name="kdenlive:id">5</property>
  </entry>
 </playlist>
 <playlist id="playlist7"/>
 <tractor id="tractor3" in="00:00:00,000" out="00:04:07,250">
  <property name="kdenlive:trackheight">64</property>
  <property name="kdenlive:collapsed">0</property>
  <property name="kdenlive:thumbs_format"/>
  <property name="kdenlive:audio_rec"/>
  <property name="kdenlive:timeline_active">1</property>
  <track hide="audio" producer="playlist6"/>
  <track hide="audio" producer="playlist7"/>
 </tractor>
 <producer title="Anonymous Submission" id="producer59" in="00:00:00,000" out="00:00:15,183">
  <property name="length">912</property>
  <property name="eof">pause</property>
  <property name="resource">media/videos/anim/1440p60/SequencePlotTraj.mp4</property>
  <property name="audio_index">-1</property>
  <property name="video_index">0</property>
  <property name="mute_on_pause">0</property>
  <property name="mlt_service">avformat-novalidate</property>
  <property name="seekable">1</property>
  <property name="aspect_ratio">1</property>
  <property name="kdenlive:clipname"/>
  <property name="kdenlive:folderid">9</property>
  <property name="kdenlive:id">8</property>
  <property name="kdenlive:file_size">1068033</property>
  <property name="kdenlive:file_hash">dcc470176942dcab04184c0aacf7ec17</property>
  <property name="global_feed">1</property>
  <property name="xml">was here</property>
  <property name="meta.media.nb_streams">1</property>
  <property name="meta.media.0.stream.type">video</property>
  <property name="meta.media.0.stream.frame_rate">60</property>
  <property name="meta.media.0.stream.sample_aspect_ratio">0</property>
  <property name="meta.media.0.codec.width">2560</property>
  <property name="meta.media.0.codec.height">1440</property>
  <property name="meta.media.0.codec.rotate">0</property>
  <property name="meta.media.0.codec.frame_rate">60</property>
  <property name="meta.media.0.codec.pix_fmt">yuv420p</property>
  <property name="meta.media.0.codec.sample_aspect_ratio">0</property>
  <property name="meta.media.0.codec.colorspace">709</property>
  <property name="meta.media.0.codec.name">h264</property>
  <property name="meta.media.0.codec.long_name">H.264 / AVC / MPEG-4 AVC / MPEG-4 part 10</property>
  <property name="meta.media.0.codec.bit_rate">556175</property>
  <property name="meta.attr.0.stream.handler_name.markup">VideoHandler</property>
  <property name="meta.attr.major_brand.markup">isom</property>
  <property name="meta.attr.minor_version.markup">512</property>
  <property name="meta.attr.compatible_brands.markup">isomiso2avc1mp41</property>
  <property name="meta.attr.encoder.markup">Lavf58.29.100</property>
  <property name="meta.media.sample_aspect_num">1</property>
  <property name="meta.media.sample_aspect_den">1</property>
  <property name="meta.media.frame_rate_num">60</property>
  <property name="meta.media.frame_rate_den">1</property>
  <property name="meta.media.colorspace">709</property>
  <property name="meta.media.color_trc">2</property>
  <property name="meta.media.width">2560</property>
  <property name="meta.media.height">1440</property>
  <property name="meta.media.color_range">mpeg</property>
  <property name="meta.media.top_field_first">0</property>
  <property name="meta.media.progressive">1</property>
  <property name="set.test_audio">1</property>
  <property name="set.test_image">0</property>
 </producer>
 <producer id="producer60" in="00:00:00,000" out="00:00:34,483">
  <property name="length">2070</property>
  <property name="eof">pause</property>
  <property name="resource">2,000000:media/videos/anim/1440p60/Titles.mp4</property>
  <property name="aspect_ratio">1</property>
  <property name="meta.media.nb_streams">1</property>
  <property name="meta.media.0.stream.type">video</property>
  <property name="meta.media.0.stream.frame_rate">60</property>
  <property name="meta.media.0.stream.sample_aspect_ratio">0</property>
  <property name="meta.media.0.codec.width">2560</property>
  <property name="meta.media.0.codec.height">1440</property>
  <property name="meta.media.0.codec.rotate">0</property>
  <property name="meta.media.0.codec.frame_rate">60</property>
  <property name="meta.media.0.codec.pix_fmt">yuv420p</property>
  <property name="meta.media.0.codec.sample_aspect_ratio">0</property>
  <property name="meta.media.0.codec.colorspace">709</property>
  <property name="meta.media.0.codec.name">h264</property>
  <property name="meta.media.0.codec.long_name">H.264 / AVC / MPEG-4 AVC / MPEG-4 part 10</property>
  <property name="meta.media.0.codec.bit_rate">118140</property>
  <property name="meta.attr.0.stream.handler_name.markup">VideoHandler</property>
  <property name="meta.attr.major_brand.markup">isom</property>
  <property name="meta.attr.minor_version.markup">512</property>
  <property name="meta.attr.compatible_brands.markup">isomiso2avc1mp41</property>
  <property name="meta.attr.encoder.markup">Lavf58.29.100</property>
  <property name="seekable">1</property>
  <property name="meta.media.sample_aspect_num">1</property>
  <property name="meta.media.sample_aspect_den">1</property>
  <property name="audio_index">-1</property>
  <property name="video_index">0</property>
  <property name="mute_on_pause">1</property>
  <property name="warp_speed">2</property>
  <property name="warp_resource">media/videos/anim/1440p60/Titles.mp4</property>
  <property name="mlt_service">timewarp</property>
  <property name="set.test_audio">1</property>
  <property name="set.test_image">0</property>
  <property name="meta.media.frame_rate_num">60</property>
  <property name="meta.media.frame_rate_den">1</property>
  <property name="meta.media.colorspace">709</property>
  <property name="meta.media.color_trc">2</property>
  <property name="meta.media.width">2560</property>
  <property name="meta.media.height">1440</property>
  <property name="meta.media.color_range">mpeg</property>
  <property name="meta.media.top_field_first">0</property>
  <property name="meta.media.progressive">1</property>
 </producer>
 <producer title="Anonymous Submission" id="producer61" in="00:00:00,000" out="00:00:15,183">
  <property name="length">912</property>
  <property name="eof">pause</property>
  <property name="resource">media/videos/anim/1440p60/SequencePlotDeriv.mp4</property>
  <property name="audio_index">-1</property>
  <property name="video_index">0</property>
  <property name="mute_on_pause">0</property>
  <property name="mlt_service">avformat-novalidate</property>
  <property name="seekable">1</property>
  <property name="aspect_ratio">1</property>
  <property name="kdenlive:clipname"/>
  <property name="kdenlive:folderid">9</property>
  <property name="kdenlive:id">4</property>
  <property name="kdenlive:file_size">1544506</property>
  <property name="kdenlive:file_hash">cc28564270784cee3a9357efd0d05fed</property>
  <property name="global_feed">1</property>
  <property name="xml">was here</property>
  <property name="meta.media.nb_streams">1</property>
  <property name="meta.media.0.stream.type">video</property>
  <property name="meta.media.0.stream.frame_rate">60</property>
  <property name="meta.media.0.stream.sample_aspect_ratio">0</property>
  <property name="meta.media.0.codec.width">2560</property>
  <property name="meta.media.0.codec.height">1440</property>
  <property name="meta.media.0.codec.rotate">0</property>
  <property name="meta.media.0.codec.frame_rate">60</property>
  <property name="meta.media.0.codec.pix_fmt">yuv420p</property>
  <property name="meta.media.0.codec.sample_aspect_ratio">0</property>
  <property name="meta.media.0.codec.colorspace">709</property>
  <property name="meta.media.0.codec.name">h264</property>
  <property name="meta.media.0.codec.long_name">H.264 / AVC / MPEG-4 AVC / MPEG-4 part 10</property>
  <property name="meta.media.0.codec.bit_rate">806951</property>
  <property name="meta.attr.0.stream.handler_name.markup">VideoHandler</property>
  <property name="meta.attr.major_brand.markup">isom</property>
  <property name="meta.attr.minor_version.markup">512</property>
  <property name="meta.attr.compatible_brands.markup">isomiso2avc1mp41</property>
  <property name="meta.attr.encoder.markup">Lavf58.29.100</property>
  <property name="meta.media.sample_aspect_num">1</property>
  <property name="meta.media.sample_aspect_den">1</property>
  <property name="meta.media.frame_rate_num">60</property>
  <property name="meta.media.frame_rate_den">1</property>
  <property name="meta.media.colorspace">709</property>
  <property name="meta.media.color_trc">2</property>
  <property name="meta.media.width">2560</property>
  <property name="meta.media.height">1440</property>
  <property name="meta.media.color_range">mpeg</property>
  <property name="meta.media.top_field_first">0</property>
  <property name="meta.media.progressive">1</property>
  <property name="set.test_audio">1</property>
  <property name="set.test_image">0</property>
 </producer>
 <producer title="Anonymous Submission" id="producer62" in="00:00:00,000" out="00:00:21,783">
  <property name="length">1308</property>
  <property name="eof">pause</property>
  <property name="resource">media/videos/anim/1440p60/SequencePlotSweepline.mp4</property>
  <property name="audio_index">-1</property>
  <property name="video_index">0</property>
  <property name="mute_on_pause">0</property>
  <property name="mlt_service">avformat-novalidate</property>
  <property name="seekable">1</property>
  <property name="aspect_ratio">1</property>
  <property name="kdenlive:clipname"/>
  <property name="kdenlive:folderid">9</property>
  <property name="kdenlive:id">7</property>
  <property name="kdenlive:file_size">1775160</property>
  <property name="kdenlive:file_hash">e8adcfb60d0288d0446f54c9f73ee705</property>
  <property name="global_feed">1</property>
  <property name="xml">was here</property>
  <property name="meta.media.nb_streams">1</property>
  <property name="meta.media.0.stream.type">video</property>
  <property name="meta.media.0.stream.frame_rate">60</property>
  <property name="meta.media.0.stream.sample_aspect_ratio">0</property>
  <property name="meta.media.0.codec.width">2560</property>
  <property name="meta.media.0.codec.height">1440</property>
  <property name="meta.media.0.codec.rotate">0</property>
  <property name="meta.media.0.codec.frame_rate">60</property>
  <property name="meta.media.0.codec.pix_fmt">yuv420p</property>
  <property name="meta.media.0.codec.sample_aspect_ratio">0</property>
  <property name="meta.media.0.codec.colorspace">709</property>
  <property name="meta.media.0.codec.name">h264</property>
  <property name="meta.media.0.codec.long_name">H.264 / AVC / MPEG-4 AVC / MPEG-4 part 10</property>
  <property name="meta.media.0.codec.bit_rate">645675</property>
  <property name="meta.attr.0.stream.handler_name.markup">VideoHandler</property>
  <property name="meta.attr.major_brand.markup">isom</property>
  <property name="meta.attr.minor_version.markup">512</property>
  <property name="meta.attr.compatible_brands.markup">isomiso2avc1mp41</property>
  <property name="meta.attr.encoder.markup">Lavf58.29.100</property>
  <property name="meta.media.sample_aspect_num">1</property>
  <property name="meta.media.sample_aspect_den">1</property>
  <property name="meta.media.frame_rate_num">60</property>
  <property name="meta.media.frame_rate_den">1</property>
  <property name="meta.media.colorspace">709</property>
  <property name="meta.media.color_trc">2</property>
  <property name="meta.media.width">2560</property>
  <property name="meta.media.height">1440</property>
  <property name="meta.media.color_range">mpeg</property>
  <property name="meta.media.top_field_first">0</property>
  <property name="meta.media.progressive">1</property>
  <property name="set.test_audio">1</property>
  <property name="set.test_image">0</property>
 </producer>
 <producer id="producer63" in="00:00:00,000" out="00:00:43,583">
  <property name="length">2616</property>
  <property name="eof">pause</property>
  <property name="resource">0,500000:media/videos/anim/1440p60/SequencePlotSweepline.mp4</property>
  <property name="aspect_ratio">1</property>
  <property name="meta.media.nb_streams">1</property>
  <property name="meta.media.0.stream.type">video</property>
  <property name="meta.media.0.stream.frame_rate">60</property>
  <property name="meta.media.0.stream.sample_aspect_ratio">0</property>
  <property name="meta.media.0.codec.width">2560</property>
  <property name="meta.media.0.codec.height">1440</property>
  <property name="meta.media.0.codec.rotate">0</property>
  <property name="meta.media.0.codec.frame_rate">60</property>
  <property name="meta.media.0.codec.pix_fmt">yuv420p</property>
  <property name="meta.media.0.codec.sample_aspect_ratio">0</property>
  <property name="meta.media.0.codec.colorspace">709</property>
  <property name="meta.media.0.codec.name">h264</property>
  <property name="meta.media.0.codec.long_name">H.264 / AVC / MPEG-4 AVC / MPEG-4 part 10</property>
  <property name="meta.media.0.codec.bit_rate">645675</property>
  <property name="meta.attr.0.stream.handler_name.markup">VideoHandler</property>
  <property name="meta.attr.major_brand.markup">isom</property>
  <property name="meta.attr.minor_version.markup">512</property>
  <property name="meta.attr.compatible_brands.markup">isomiso2avc1mp41</property>
  <property name="meta.attr.encoder.markup">Lavf58.29.100</property>
  <property name="seekable">1</property>
  <property name="meta.media.sample_aspect_num">1</property>
  <property name="meta.media.sample_aspect_den">1</property>
  <property name="audio_index">-1</property>
  <property name="video_index">0</property>
  <property name="mute_on_pause">1</property>
  <property name="warp_speed">0,5</property>
  <property name="warp_resource">media/videos/anim/1440p60/SequencePlotSweepline.mp4</property>
  <property name="mlt_service">timewarp</property>
  <property name="set.test_audio">1</property>
  <property name="set.test_image">0</property>
  <property name="meta.media.frame_rate_num">60</property>
  <property name="meta.media.frame_rate_den">1</property>
  <property name="meta.media.colorspace">709</property>
  <property name="meta.media.color_trc">2</property>
  <property name="meta.media.width">2560</property>
  <property name="meta.media.height">1440</property>
  <property name="meta.media.color_range">mpeg</property>
  <property name="meta.media.top_field_first">0</property>
  <property name="meta.media.progressive">1</property>
 </producer>
 <producer title="Anonymous Submission" id="producer64" in="00:00:00,000" out="00:01:08,983">
  <property name="length">4140</property>
  <property name="eof">pause</property>
  <property name="resource">media/videos/anim/1440p60/Titles.mp4</property>
  <property name="audio_index">-1</property>
  <property name="video_index">0</property>
  <property name="mute_on_pause">0</property>
  <property name="mlt_service">avformat-novalidate</property>
  <property name="seekable">1</property>
  <property name="aspect_ratio">1</property>
  <property name="kdenlive:clipname"/>
  <property name="kdenlive:folderid">9</property>
  <property name="kdenlive:id">12</property>
  <property name="kdenlive:file_size">1069306</property>
  <property name="kdenlive:file_hash">4db30d265e4c740cd440b9bdc4d4610e</property>
  <property name="global_feed">1</property>
  <property name="xml">was here</property>
  <property name="meta.media.nb_streams">1</property>
  <property name="meta.media.0.stream.type">video</property>
  <property name="meta.media.0.stream.frame_rate">60</property>
  <property name="meta.media.0.stream.sample_aspect_ratio">0</property>
  <property name="meta.media.0.codec.width">2560</property>
  <property name="meta.media.0.codec.height">1440</property>
  <property name="meta.media.0.codec.rotate">0</property>
  <property name="meta.media.0.codec.frame_rate">60</property>
  <property name="meta.media.0.codec.pix_fmt">yuv420p</property>
  <property name="meta.media.0.codec.sample_aspect_ratio">0</property>
  <property name="meta.media.0.codec.colorspace">709</property>
  <property name="meta.media.0.codec.name">h264</property>
  <property name="meta.media.0.codec.long_name">H.264 / AVC / MPEG-4 AVC / MPEG-4 part 10</property>
  <property name="meta.media.0.codec.bit_rate">118140</property>
  <property name="meta.attr.0.stream.handler_name.markup">VideoHandler</property>
  <property name="meta.attr.major_brand.markup">isom</property>
  <property name="meta.attr.minor_version.markup">512</property>
  <property name="meta.attr.compatible_brands.markup">isomiso2avc1mp41</property>
  <property name="meta.attr.encoder.markup">Lavf58.29.100</property>
  <property name="meta.media.sample_aspect_num">1</property>
  <property name="meta.media.sample_aspect_den">1</property>
  <property name="meta.media.frame_rate_num">60</property>
  <property name="meta.media.frame_rate_den">1</property>
  <property name="meta.media.colorspace">709</property>
  <property name="meta.media.color_trc">2</property>
  <property name="meta.media.width">2560</property>
  <property name="meta.media.height">1440</property>
  <property name="meta.media.color_range">mpeg</property>
  <property name="meta.media.top_field_first">0</property>
  <property name="meta.media.progressive">1</property>
  <property name="set.test_audio">1</property>
  <property name="set.test_image">0</property>
 </producer>
 <producer id="producer65" in="00:00:00,000" out="00:00:34,483">
  <property name="length">2070</property>
  <property name="eof">pause</property>
  <property name="resource">2,000000:media/videos/anim/1440p60/Titles.mp4</property>
  <property name="aspect_ratio">1</property>
  <property name="meta.media.nb_streams">1</property>
  <property name="meta.media.0.stream.type">video</property>
  <property name="meta.media.0.stream.frame_rate">60</property>
  <property name="meta.media.0.stream.sample_aspect_ratio">0</property>
  <property name="meta.media.0.codec.width">2560</property>
  <property name="meta.media.0.codec.height">1440</property>
  <property name="meta.media.0.codec.rotate">0</property>
  <property name="meta.media.0.codec.frame_rate">60</property>
  <property name="meta.media.0.codec.pix_fmt">yuv420p</property>
  <property name="meta.media.0.codec.sample_aspect_ratio">0</property>
  <property name="meta.media.0.codec.colorspace">709</property>
  <property name="meta.media.0.codec.name">h264</property>
  <property name="meta.media.0.codec.long_name">H.264 / AVC / MPEG-4 AVC / MPEG-4 part 10</property>
  <property name="meta.media.0.codec.bit_rate">118140</property>
  <property name="meta.attr.0.stream.handler_name.markup">VideoHandler</property>
  <property name="meta.attr.major_brand.markup">isom</property>
  <property name="meta.attr.minor_version.markup">512</property>
  <property name="meta.attr.compatible_brands.markup">isomiso2avc1mp41</property>
  <property name="meta.attr.encoder.markup">Lavf58.29.100</property>
  <property name="seekable">1</property>
  <property name="meta.media.sample_aspect_num">1</property>
  <property name="meta.media.sample_aspect_den">1</property>
  <property name="audio_index">-1</property>
  <property name="video_index">0</property>
  <property name="mute_on_pause">1</property>
  <property name="warp_speed">2</property>
  <property name="warp_resource">media/videos/anim/1440p60/Titles.mp4</property>
  <property name="mlt_service">timewarp</property>
  <property name="set.test_audio">1</property>
  <property name="set.test_image">0</property>
  <property name="meta.media.frame_rate_num">60</property>
  <property name="meta.media.frame_rate_den">1</property>
  <property name="meta.media.colorspace">709</property>
  <property name="meta.media.color_trc">2</property>
  <property name="meta.media.width">2560</property>
  <property name="meta.media.height">1440</property>
  <property name="meta.media.color_range">mpeg</property>
  <property name="meta.media.top_field_first">0</property>
  <property name="meta.media.progressive">1</property>
 </producer>
 <playlist id="playlist8">
  <blank length="00:00:14,533"/>
  <entry producer="producer46" in="00:00:00,000" out="00:00:13,633">
   <property name="kdenlive:id">62</property>
   <property name="kdenlive:activeeffect">0</property>
   <filter id="filter7">
    <property name="version">0,1</property>
    <property name="mlt_service">frei0r.glow</property>
    <property name="kdenlive_id">frei0r.glow</property>
    <property name="Blur">00:00:00,000=0,01</property>
    <property name="kdenlive:collapsed">0</property>
   </filter>
  </entry>
  <entry producer="producer19" in="00:00:00,000" out="00:00:09,300">
   <property name="kdenlive:id">33</property>
  </entry>
  <blank length="00:00:04,167"/>
  <entry producer="producer59" in="00:00:00,000" out="00:00:15,183">
   <property name="kdenlive:id">8</property>
   <property name="kdenlive:activeeffect">-1</property>
  </entry>
  <entry producer="producer43" in="00:00:00,000" out="00:00:08,967">
   <property name="kdenlive:id">36</property>
   <property name="kdenlive:activeeffect">-1</property>
  </entry>
  <entry producer="producer60" in="00:00:04,167" out="00:00:07,983">
   <property name="kdenlive:id">12</property>
  </entry>
  <entry producer="producer42" in="00:00:00,000" out="00:00:26,900">
   <property name="kdenlive:id">37</property>
  </entry>
  <blank length="00:00:05,567"/>
  <entry producer="producer50" in="00:00:00,000" out="00:00:04,983">
   <property name="kdenlive:id">56</property>
  </entry>
  <blank length="00:00:06,017"/>
  <entry producer="producer25" in="00:00:00,000" out="00:00:04,017">
   <property name="kdenlive:id">41</property>
   <property name="kdenlive:activeeffect">-1</property>
  </entry>
  <entry producer="producer61" in="00:00:00,000" out="00:00:15,183">
   <property name="kdenlive:id">4</property>
   <property name="kdenlive:activeeffect">0</property>
   <filter id="filter8">
    <property name="rotate_center">1</property>
    <property name="mlt_service">qtblend</property>
    <property name="kdenlive_id">qtblend</property>
    <property name="rect">00:00:00,000=1211 323 1350 883 1</property>
    <property name="rotation">00:00:00,000=0</property>
    <property name="compositing">0</property>
    <property name="distort">0</property>
    <property name="kdenlive:collapsed">0</property>
   </filter>
  </entry>
  <blank length="00:00:03,500"/>
  <entry producer="producer62" in="00:00:00,000" out="00:00:19,383">
   <property name="kdenlive:id">7</property>
  </entry>
  <entry producer="producer63" in="00:00:38,800" out="00:00:43,583">
   <property name="kdenlive:id">7</property>
  </entry>
  <blank length="00:00:22,017"/>
  <entry producer="producer64" in="00:00:40,983" out="00:00:47,983">
   <property name="kdenlive:id">12</property>
  </entry>
  <entry producer="producer52" in="00:00:00,000" out="00:00:09,600">
   <property name="kdenlive:id">65</property>
   <property name="kdenlive:activeeffect">0</property>
   <filter id="filter9">
    <property name="rotate_center">1</property>
    <property name="mlt_service">qtblend</property>
    <property name="kdenlive_id">qtblend</property>
    <property name="rect">00:00:00,000=578 325 1406 792 1</property>
    <property name="rotation">00:00:00,000=0</property>
    <property name="compositing">0</property>
    <property name="distort">0</property>
    <property name="kdenlive:collapsed">0</property>
   </filter>
  </entry>
  <blank length="00:00:48,500"/>
  <entry producer="producer64" in="00:00:48,000" out="00:00:54,633">
   <property name="kdenlive:id">12</property>
  </entry>
  <blank length="00:00:13,983"/>
  <entry producer="producer30" in="00:00:00,000" out="00:00:06,000">
   <property name="kdenlive:id">46</property>
  </entry>
  <entry producer="producer65" in="00:00:27,317" out="00:00:30,833">
   <property name="kdenlive:id">12</property>
  </entry>
  <blank length="00:00:12,233"/>
  <entry producer="producer53" in="00:00:00,000" out="00:00:11,650">
   <property name="kdenlive:id">52</property>
  </entry>
 </playlist>
 <playlist id="playlist9"/>
 <tractor id="tractor4" in="00:00:00,000" out="00:05:01,333">
  <property name="kdenlive:trackheight">64</property>
  <property name="kdenlive:track_name">titles</property>
  <property name="kdenlive:timeline_active">1</property>
  <track producer="playlist8"/>
  <track producer="playlist9"/>
 </tractor>
 <producer id="producer66" in="00:00:00,000" out="00:00:34,483">
  <property name="length">2070</property>
  <property name="eof">pause</property>
  <property name="resource">2,000000:media/videos/anim/1440p60/Titles.mp4</property>
  <property name="aspect_ratio">1</property>
  <property name="meta.media.nb_streams">1</property>
  <property name="meta.media.0.stream.type">video</property>
  <property name="meta.media.0.stream.frame_rate">60</property>
  <property name="meta.media.0.stream.sample_aspect_ratio">0</property>
  <property name="meta.media.0.codec.width">2560</property>
  <property name="meta.media.0.codec.height">1440</property>
  <property name="meta.media.0.codec.rotate">0</property>
  <property name="meta.media.0.codec.frame_rate">60</property>
  <property name="meta.media.0.codec.pix_fmt">yuv420p</property>
  <property name="meta.media.0.codec.sample_aspect_ratio">0</property>
  <property name="meta.media.0.codec.colorspace">709</property>
  <property name="meta.media.0.codec.name">h264</property>
  <property name="meta.media.0.codec.long_name">H.264 / AVC / MPEG-4 AVC / MPEG-4 part 10</property>
  <property name="meta.media.0.codec.bit_rate">118140</property>
  <property name="meta.attr.0.stream.handler_name.markup">VideoHandler</property>
  <property name="meta.attr.major_brand.markup">isom</property>
  <property name="meta.attr.minor_version.markup">512</property>
  <property name="meta.attr.compatible_brands.markup">isomiso2avc1mp41</property>
  <property name="meta.attr.encoder.markup">Lavf58.29.100</property>
  <property name="seekable">1</property>
  <property name="meta.media.sample_aspect_num">1</property>
  <property name="meta.media.sample_aspect_den">1</property>
  <property name="audio_index">-1</property>
  <property name="video_index">0</property>
  <property name="mute_on_pause">1</property>
  <property name="warp_speed">2</property>
  <property name="warp_resource">media/videos/anim/1440p60/Titles.mp4</property>
  <property name="mlt_service">timewarp</property>
  <property name="set.test_audio">1</property>
  <property name="set.test_image">0</property>
  <property name="meta.media.frame_rate_num">60</property>
  <property name="meta.media.frame_rate_den">1</property>
  <property name="meta.media.colorspace">709</property>
  <property name="meta.media.color_trc">2</property>
  <property name="meta.media.width">2560</property>
  <property name="meta.media.height">1440</property>
  <property name="meta.media.color_range">mpeg</property>
  <property name="meta.media.top_field_first">0</property>
  <property name="meta.media.progressive">1</property>
 </producer>
 <producer title="Anonymous Submission" id="producer67" in="00:00:00,000" out="00:01:08,983">
  <property name="length">4140</property>
  <property name="eof">pause</property>
  <property name="resource">media/videos/anim/1440p60/Titles.mp4</property>
  <property name="audio_index">-1</property>
  <property name="video_index">0</property>
  <property name="mute_on_pause">0</property>
  <property name="mlt_service">avformat-novalidate</property>
  <property name="seekable">1</property>
  <property name="aspect_ratio">1</property>
  <property name="kdenlive:clipname"/>
  <property name="kdenlive:folderid">9</property>
  <property name="kdenlive:id">12</property>
  <property name="kdenlive:file_size">1069306</property>
  <property name="kdenlive:file_hash">4db30d265e4c740cd440b9bdc4d4610e</property>
  <property name="global_feed">1</property>
  <property name="xml">was here</property>
  <property name="meta.media.nb_streams">1</property>
  <property name="meta.media.0.stream.type">video</property>
  <property name="meta.media.0.stream.frame_rate">60</property>
  <property name="meta.media.0.stream.sample_aspect_ratio">0</property>
  <property name="meta.media.0.codec.width">2560</property>
  <property name="meta.media.0.codec.height">1440</property>
  <property name="meta.media.0.codec.rotate">0</property>
  <property name="meta.media.0.codec.frame_rate">60</property>
  <property name="meta.media.0.codec.pix_fmt">yuv420p</property>
  <property name="meta.media.0.codec.sample_aspect_ratio">0</property>
  <property name="meta.media.0.codec.colorspace">709</property>
  <property name="meta.media.0.codec.name">h264</property>
  <property name="meta.media.0.codec.long_name">H.264 / AVC / MPEG-4 AVC / MPEG-4 part 10</property>
  <property name="meta.media.0.codec.bit_rate">118140</property>
  <property name="meta.attr.0.stream.handler_name.markup">VideoHandler</property>
  <property name="meta.attr.major_brand.markup">isom</property>
  <property name="meta.attr.minor_version.markup">512</property>
  <property name="meta.attr.compatible_brands.markup">isomiso2avc1mp41</property>
  <property name="meta.attr.encoder.markup">Lavf58.29.100</property>
  <property name="meta.media.sample_aspect_num">1</property>
  <property name="meta.media.sample_aspect_den">1</property>
  <property name="meta.media.frame_rate_num">60</property>
  <property name="meta.media.frame_rate_den">1</property>
  <property name="meta.media.colorspace">709</property>
  <property name="meta.media.color_trc">2</property>
  <property name="meta.media.width">2560</property>
  <property name="meta.media.height">1440</property>
  <property name="meta.media.color_range">mpeg</property>
  <property name="meta.media.top_field_first">0</property>
  <property name="meta.media.progressive">1</property>
  <property name="set.test_audio">1</property>
  <property name="set.test_image">0</property>
 </producer>
 <producer id="producer68" in="00:00:00,000" out="00:00:34,483">
  <property name="length">2070</property>
  <property name="eof">pause</property>
  <property name="resource">2,000000:media/videos/anim/1440p60/Titles.mp4</property>
  <property name="aspect_ratio">1</property>
  <property name="meta.media.nb_streams">1</property>
  <property name="meta.media.0.stream.type">video</property>
  <property name="meta.media.0.stream.frame_rate">60</property>
  <property name="meta.media.0.stream.sample_aspect_ratio">0</property>
  <property name="meta.media.0.codec.width">2560</property>
  <property name="meta.media.0.codec.height">1440</property>
  <property name="meta.media.0.codec.rotate">0</property>
  <property name="meta.media.0.codec.frame_rate">60</property>
  <property name="meta.media.0.codec.pix_fmt">yuv420p</property>
  <property name="meta.media.0.codec.sample_aspect_ratio">0</property>
  <property name="meta.media.0.codec.colorspace">709</property>
  <property name="meta.media.0.codec.name">h264</property>
  <property name="meta.media.0.codec.long_name">H.264 / AVC / MPEG-4 AVC / MPEG-4 part 10</property>
  <property name="meta.media.0.codec.bit_rate">118140</property>
  <property name="meta.attr.0.stream.handler_name.markup">VideoHandler</property>
  <property name="meta.attr.major_brand.markup">isom</property>
  <property name="meta.attr.minor_version.markup">512</property>
  <property name="meta.attr.compatible_brands.markup">isomiso2avc1mp41</property>
  <property name="meta.attr.encoder.markup">Lavf58.29.100</property>
  <property name="seekable">1</property>
  <property name="meta.media.sample_aspect_num">1</property>
  <property name="meta.media.sample_aspect_den">1</property>
  <property name="audio_index">-1</property>
  <property name="video_index">0</property>
  <property name="mute_on_pause">1</property>
  <property name="warp_speed">2</property>
  <property name="warp_resource">media/videos/anim/1440p60/Titles.mp4</property>
  <property name="mlt_service">timewarp</property>
  <property name="set.test_audio">1</property>
  <property name="set.test_image">0</property>
  <property name="meta.media.frame_rate_num">60</property>
  <property name="meta.media.frame_rate_den">1</property>
  <property name="meta.media.colorspace">709</property>
  <property name="meta.media.color_trc">2</property>
  <property name="meta.media.width">2560</property>
  <property name="meta.media.height">1440</property>
  <property name="meta.media.color_range">mpeg</property>
  <property name="meta.media.top_field_first">0</property>
  <property name="meta.media.progressive">1</property>
 </producer>
 <producer id="producer69" in="00:00:00,000" out="00:00:16,067">
  <property name="length">965</property>
  <property name="eof">pause</property>
  <property name="resource">1,200000:media/videos/anim/1440p60/SequencePlotMinMax.mp4</property>
  <property name="aspect_ratio">1</property>
  <property name="meta.media.nb_streams">1</property>
  <property name="meta.media.0.stream.type">video</property>
  <property name="meta.media.0.stream.frame_rate">60</property>
  <property name="meta.media.0.stream.sample_aspect_ratio">0</property>
  <property name="meta.media.0.codec.width">2560</property>
  <property name="meta.media.0.codec.height">1440</property>
  <property name="meta.media.0.codec.rotate">0</property>
  <property name="meta.media.0.codec.frame_rate">60</property>
  <property name="meta.media.0.codec.pix_fmt">yuv420p</property>
  <property name="meta.media.0.codec.sample_aspect_ratio">0</property>
  <property name="meta.media.0.codec.colorspace">709</property>
  <property name="meta.media.0.codec.name">h264</property>
  <property name="meta.media.0.codec.long_name">H.264 / AVC / MPEG-4 AVC / MPEG-4 part 10</property>
  <property name="meta.media.0.codec.bit_rate">1159690</property>
  <property name="meta.attr.0.stream.handler_name.markup">VideoHandler</property>
  <property name="meta.attr.major_brand.markup">isom</property>
  <property name="meta.attr.minor_version.markup">512</property>
  <property name="meta.attr.compatible_brands.markup">isomiso2avc1mp41</property>
  <property name="meta.attr.encoder.markup">Lavf58.29.100</property>
  <property name="seekable">1</property>
  <property name="meta.media.sample_aspect_num">1</property>
  <property name="meta.media.sample_aspect_den">1</property>
  <property name="audio_index">-1</property>
  <property name="video_index">0</property>
  <property name="mute_on_pause">1</property>
  <property name="warp_speed">1,2</property>
  <property name="warp_resource">media/videos/anim/1440p60/SequencePlotMinMax.mp4</property>
  <property name="mlt_service">timewarp</property>
  <property name="set.test_audio">1</property>
  <property name="set.test_image">0</property>
  <property name="meta.media.frame_rate_num">60</property>
  <property name="meta.media.frame_rate_den">1</property>
  <property name="meta.media.colorspace">709</property>
  <property name="meta.media.color_trc">2</property>
  <property name="meta.media.width">2560</property>
  <property name="meta.media.height">1440</property>
  <property name="meta.media.color_range">mpeg</property>
  <property name="meta.media.top_field_first">0</property>
  <property name="meta.media.progressive">1</property>
 </producer>
 <playlist id="playlist10">
  <blank length="00:00:37,500"/>
  <entry producer="producer66" in="00:00:00,000" out="00:00:04,150">
   <property name="kdenlive:id">12</property>
  </entry>
  <blank length="00:00:54,933"/>
  <entry producer="producer67" in="00:00:15,983" out="00:00:21,967">
   <property name="kdenlive:id">12</property>
  </entry>
  <blank length="00:00:04,567"/>
  <entry producer="producer67" in="00:00:21,983" out="00:00:27,983">
   <property name="kdenlive:id">12</property>
  </entry>
  <blank length="00:00:49,867"/>
  <entry producer="producer68" in="00:00:17,483" out="00:00:20,467">
   <property name="kdenlive:id">12</property>
  </entry>
  <entry producer="producer69" in="00:00:00,000" out="00:00:16,067">
   <property name="kdenlive:id">6</property>
  </entry>
  <blank length="00:01:11,783"/>
  <entry producer="producer29" in="00:00:00,000" out="00:00:13,967">
   <property name="kdenlive:id">45</property>
  </entry>
  <blank length="00:00:09,550"/>
  <entry producer="producer54" in="00:00:00,000" out="00:00:12,400">
   <property name="kdenlive:id">51</property>
  </entry>
 </playlist>
 <playlist id="playlist11"/>
 <tractor id="tractor5" in="00:00:00,000" out="00:04:49,850">
  <property name="kdenlive:trackheight">64</property>
  <property name="kdenlive:timeline_active">1</property>
  <track producer="playlist10"/>
  <track producer="playlist11"/>
 </tractor>
 <tractor title="Anonymous Submission" id="tractor6" global_feed="1" in="00:00:00,000" out="00:13:37,450">
  <track producer="black_track"/>
  <track producer="tractor0"/>
  <track producer="tractor1"/>
  <track producer="tractor2"/>
  <track producer="tractor3"/>
  <track producer="tractor4"/>
  <track producer="tractor5"/>
  <transition id="transition0">
   <property name="a_track">0</property>
   <property name="b_track">0</property>
   <property name="mlt_service">mix</property>
   <property name="kdenlive_id">mix</property>
   <property name="internal_added">237</property>
   <property name="always_active">1</property>
   <property name="sum">1</property>
  </transition>
  <transition id="transition1">
   <property name="a_track">0</property>
   <property name="b_track">2</property>
   <property name="mlt_service">mix</property>
   <property name="kdenlive_id">mix</property>
   <property name="internal_added">237</property>
   <property name="always_active">1</property>
   <property name="sum">1</property>
  </transition>
  <transition id="transition2">
   <property name="a_track">0</property>
   <property name="b_track">0</property>
   <property name="mlt_service">mix</property>
   <property name="kdenlive_id">mix</property>
   <property name="internal_added">237</property>
   <property name="always_active">1</property>
   <property name="sum">1</property>
  </transition>
  <transition id="transition3">
   <property name="a_track">0</property>
   <property name="b_track">2</property>
   <property name="mlt_service">mix</property>
   <property name="kdenlive_id">mix</property>
   <property name="internal_added">237</property>
   <property name="always_active">1</property>
   <property name="sum">1</property>
  </transition>
  <transition id="transition4">
   <property name="a_track">0</property>
   <property name="b_track">2</property>
   <property name="mlt_service">mix</property>
   <property name="kdenlive_id">mix</property>
   <property name="internal_added">237</property>
   <property name="always_active">1</property>
   <property name="sum">1</property>
  </transition>
  <transition id="transition5">
   <property name="a_track">0</property>
   <property name="b_track">2</property>
   <property name="mlt_service">mix</property>
   <property name="kdenlive_id">mix</property>
   <property name="internal_added">237</property>
   <property name="always_active">1</property>
   <property name="sum">1</property>
  </transition>
  <transition id="transition6">
   <property name="a_track">0</property>
   <property name="b_track">3</property>
   <property name="compositing">0</property>
   <property name="distort">0</property>
   <property name="rotate_center">0</property>
   <property name="mlt_service">qtblend</property>
   <property name="kdenlive_id">qtblend</property>
   <property name="internal_added">237</property>
   <property name="always_active">1</property>
  </transition>
  <transition id="transition7">
   <property name="a_track">0</property>
   <property name="b_track">3</property>
   <property name="compositing">0</property>
   <property name="distort">0</property>
   <property name="rotate_center">0</property>
   <property name="mlt_service">qtblend</property>
   <property name="kdenlive_id">qtblend</property>
   <property name="internal_added">237</property>
   <property name="always_active">1</property>
  </transition>
  <transition id="transition8">
   <property name="a_track">0</property>
   <property name="b_track">3</property>
   <property name="compositing">0</property>
   <property name="distort">0</property>
   <property name="rotate_center">0</property>
   <property name="mlt_service">qtblend</property>
   <property name="kdenlive_id">qtblend</property>
   <property name="internal_added">237</property>
   <property name="always_active">1</property>
  </transition>
  <transition id="transition9">
   <property name="a_track">0</property>
   <property name="b_track">3</property>
   <property name="compositing">0</property>
   <property name="distort">0</property>
   <property name="rotate_center">0</property>
   <property name="mlt_service">qtblend</property>
   <property name="kdenlive_id">qtblend</property>
   <property name="internal_added">237</property>
   <property name="always_active">1</property>
  </transition>
  <transition id="transition10">
   <property name="a_track">0</property>
   <property name="b_track">4</property>
   <property name="compositing">0</property>
   <property name="distort">0</property>
   <property name="rotate_center">0</property>
   <property name="mlt_service">qtblend</property>
   <property name="kdenlive_id">qtblend</property>
   <property name="internal_added">237</property>
   <property name="always_active">1</property>
  </transition>
  <transition id="transition11">
   <property name="a_track">0</property>
   <property name="b_track">4</property>
   <property name="compositing">0</property>
   <property name="distort">0</property>
   <property name="rotate_center">0</property>
   <property name="mlt_service">qtblend</property>
   <property name="kdenlive_id">qtblend</property>
   <property name="internal_added">237</property>
   <property name="always_active">1</property>
  </transition>
  <transition id="transition12">
   <property name="a_track">0</property>
   <property name="b_track">4</property>
   <property name="compositing">0</property>
   <property name="distort">0</property>
   <property name="rotate_center">0</property>
   <property name="mlt_service">qtblend</property>
   <property name="kdenlive_id">qtblend</property>
   <property name="internal_added">237</property>
   <property name="always_active">1</property>
  </transition>
  <transition id="transition13">
   <property name="a_track">0</property>
   <property name="b_track">5</property>
   <property name="compositing">0</property>
   <property name="distort">0</property>
   <property name="rotate_center">0</property>
   <property name="mlt_service">qtblend</property>
   <property name="kdenlive_id">qtblend</property>
   <property name="internal_added">237</property>
   <property name="always_active">1</property>
  </transition>
  <transition id="transition14">
   <property name="a_track">0</property>
   <property name="b_track">1</property>
   <property name="mlt_service">mix</property>
   <property name="kdenlive_id">mix</property>
   <property name="internal_added">237</property>
   <property name="always_active">1</property>
   <property name="sum">1</property>
  </transition>
  <transition id="transition15">
   <property name="a_track">0</property>
   <property name="b_track">2</property>
   <property name="mlt_service">mix</property>
   <property name="kdenlive_id">mix</property>
   <property name="internal_added">237</property>
   <property name="always_active">1</property>
   <property name="sum">1</property>
  </transition>
  <transition id="transition16">
   <property name="a_track">0</property>
   <property name="b_track">3</property>
   <property name="compositing">0</property>
   <property name="distort">0</property>
   <property name="rotate_center">0</property>
   <property name="mlt_service">qtblend</property>
   <property name="kdenlive_id">qtblend</property>
   <property name="internal_added">237</property>
   <property name="always_active">1</property>
  </transition>
  <transition id="transition17">
   <property name="a_track">0</property>
   <property name="b_track">4</property>
   <property name="compositing">0</property>
   <property name="distort">0</property>
   <property name="rotate_center">0</property>
   <property name="mlt_service">qtblend</property>
   <property name="kdenlive_id">qtblend</property>
   <property name="internal_added">237</property>
   <property name="always_active">1</property>
  </transition>
  <transition id="transition18">
   <property name="a_track">0</property>
   <property name="b_track">5</property>
   <property name="compositing">0</property>
   <property name="distort">0</property>
   <property name="rotate_center">0</property>
   <property name="mlt_service">qtblend</property>
   <property name="kdenlive_id">qtblend</property>
   <property name="internal_added">237</property>
   <property name="always_active">1</property>
  </transition>
  <transition id="transition19">
   <property name="a_track">0</property>
   <property name="b_track">6</property>
   <property name="compositing">0</property>
   <property name="distort">0</property>
   <property name="rotate_center">0</property>
   <property name="mlt_service">qtblend</property>
   <property name="kdenlive_id">qtblend</property>
   <property name="internal_added">237</property>
   <property name="always_active">1</property>
  </transition>
  <filter id="filter10">
   <property name="window">75</property>
   <property name="max_gain">20dB</property>
   <property name="mlt_service">volume</property>
   <property name="internal_added">237</property>
   <property name="disable">1</property>
  </filter>
  <filter id="filter11">
   <property name="channel">-1</property>
   <property name="mlt_service">panner</property>
   <property name="internal_added">237</property>
   <property name="start">0,5</property>
   <property name="disable">1</property>
  </filter>
  <filter id="filter12">
   <property name="iec_scale">0</property>
   <property name="mlt_service">audiolevel</property>
  </filter>
 </tractor>
</mlt>
